<?xml version="1.0" encoding="UTF-8"?>
<!DOCTYPE svg PUBLIC "-//W3C//DTD SVG 1.1//EN"
    "http://www.w3.org/Graphics/SVG/1.1/DTD/svg11.dtd"><svg xmlns="http://www.w3.org/2000/svg" height="300.0000" stroke-opacity="1" viewBox="0 0 300 300" font-size="1" width="300.0000" xmlns:xlink="http://www.w3.org/1999/xlink" stroke="rgb(0,0,0)" version="1.1"><defs></defs><g stroke-linejoin="miter" stroke-opacity="0.0" fill-opacity="0.5" stroke="rgb(0,0,0)" stroke-width="0.0" fill="rgb(102,26,102)" stroke-linecap="butt" stroke-miterlimit="10.0"><path d="M 47.2527,252.7473 l -0.0000,-219.7802 h -4.3956 l -0.0000,219.7802 Z"/></g><g stroke-linejoin="miter" stroke-opacity="1.0" fill-opacity="0.7" font-size="8.791208791208787px" stroke="rgb(0,0,0)" stroke-width="1.1999999999999997" fill="rgb(51,51,51)" stroke-linecap="butt" stroke-miterlimit="10.0"><text dominant-baseline="middle" transform="matrix(1.0000,0.0000,0.0000,1.0000,36.2637,32.9670)" stroke="none" text-anchor="end">1.0e2</text></g><g stroke-linejoin="miter" stroke-opacity="0.5" fill-opacity="0.0" stroke="rgb(26,102,204)" stroke-width="1.1999999999999997" fill="rgb(0,0,0)" stroke-linecap="butt" stroke-miterlimit="10.0"><path d="M 40.6593,32.9670 h 4.3956 "/></g><g stroke-linejoin="miter" stroke-opacity="1.0" fill-opacity="0.7" font-size="8.791208791208787px" stroke="rgb(0,0,0)" stroke-width="1.1999999999999997" fill="rgb(51,51,51)" stroke-linecap="butt" stroke-miterlimit="10.0"><text dominant-baseline="middle" transform="matrix(1.0000,0.0000,0.0000,1.0000,36.2637,54.9451)" stroke="none" text-anchor="end">90</text></g><g stroke-linejoin="miter" stroke-opacity="0.5" fill-opacity="0.0" stroke="rgb(26,102,204)" stroke-width="1.1999999999999997" fill="rgb(0,0,0)" stroke-linecap="butt" stroke-miterlimit="10.0"><path d="M 40.6593,54.9451 h 4.3956 "/></g><g stroke-linejoin="miter" stroke-opacity="1.0" fill-opacity="0.7" font-size="8.791208791208787px" stroke="rgb(0,0,0)" stroke-width="1.1999999999999997" fill="rgb(51,51,51)" stroke-linecap="butt" stroke-miterlimit="10.0"><text dominant-baseline="middle" transform="matrix(1.0000,0.0000,0.0000,1.0000,36.2637,76.9231)" stroke="none" text-anchor="end">80</text></g><g stroke-linejoin="miter" stroke-opacity="0.5" fill-opacity="0.0" stroke="rgb(26,102,204)" stroke-width="1.1999999999999997" fill="rgb(0,0,0)" stroke-linecap="butt" stroke-miterlimit="10.0"><path d="M 40.6593,76.9231 h 4.3956 "/></g><g stroke-linejoin="miter" stroke-opacity="1.0" fill-opacity="0.7" font-size="8.791208791208787px" stroke="rgb(0,0,0)" stroke-width="1.1999999999999997" fill="rgb(51,51,51)" stroke-linecap="butt" stroke-miterlimit="10.0"><text dominant-baseline="middle" transform="matrix(1.0000,0.0000,0.0000,1.0000,36.2637,98.9011)" stroke="none" text-anchor="end">70</text></g><g stroke-linejoin="miter" stroke-opacity="0.5" fill-opacity="0.0" stroke="rgb(26,102,204)" stroke-width="1.1999999999999997" fill="rgb(0,0,0)" stroke-linecap="butt" stroke-miterlimit="10.0"><path d="M 40.6593,98.9011 h 4.3956 "/></g><g stroke-linejoin="miter" stroke-opacity="1.0" fill-opacity="0.7" font-size="8.791208791208787px" stroke="rgb(0,0,0)" stroke-width="1.1999999999999997" fill="rgb(51,51,51)" stroke-linecap="butt" stroke-miterlimit="10.0"><text dominant-baseline="middle" transform="matrix(1.0000,0.0000,0.0000,1.0000,36.2637,120.8791)" stroke="none" text-anchor="end">60</text></g><g stroke-linejoin="miter" stroke-opacity="0.5" fill-opacity="0.0" stroke="rgb(26,102,204)" stroke-width="1.1999999999999997" fill="rgb(0,0,0)" stroke-linecap="butt" stroke-miterlimit="10.0"><path d="M 40.6593,120.8791 h 4.3956 "/></g><g stroke-linejoin="miter" stroke-opacity="1.0" fill-opacity="0.7" font-size="8.791208791208787px" stroke="rgb(0,0,0)" stroke-width="1.1999999999999997" fill="rgb(51,51,51)" stroke-linecap="butt" stroke-miterlimit="10.0"><text dominant-baseline="middle" transform="matrix(1.0000,0.0000,0.0000,1.0000,36.2637,142.8571)" stroke="none" text-anchor="end">50</text></g><g stroke-linejoin="miter" stroke-opacity="0.5" fill-opacity="0.0" stroke="rgb(26,102,204)" stroke-width="1.1999999999999997" fill="rgb(0,0,0)" stroke-linecap="butt" stroke-miterlimit="10.0"><path d="M 40.6593,142.8571 h 4.3956 "/></g><g stroke-linejoin="miter" stroke-opacity="1.0" fill-opacity="0.7" font-size="8.791208791208787px" stroke="rgb(0,0,0)" stroke-width="1.1999999999999997" fill="rgb(51,51,51)" stroke-linecap="butt" stroke-miterlimit="10.0"><text dominant-baseline="middle" transform="matrix(1.0000,0.0000,0.0000,1.0000,36.2637,164.8352)" stroke="none" text-anchor="end">40</text></g><g stroke-linejoin="miter" stroke-opacity="0.5" fill-opacity="0.0" stroke="rgb(26,102,204)" stroke-width="1.1999999999999997" fill="rgb(0,0,0)" stroke-linecap="butt" stroke-miterlimit="10.0"><path d="M 40.6593,164.8352 h 4.3956 "/></g><g stroke-linejoin="miter" stroke-opacity="1.0" fill-opacity="0.7" font-size="8.791208791208787px" stroke="rgb(0,0,0)" stroke-width="1.1999999999999997" fill="rgb(51,51,51)" stroke-linecap="butt" stroke-miterlimit="10.0"><text dominant-baseline="middle" transform="matrix(1.0000,0.0000,0.0000,1.0000,36.2637,186.8132)" stroke="none" text-anchor="end">30</text></g><g stroke-linejoin="miter" stroke-opacity="0.5" fill-opacity="0.0" stroke="rgb(26,102,204)" stroke-width="1.1999999999999997" fill="rgb(0,0,0)" stroke-linecap="butt" stroke-miterlimit="10.0"><path d="M 40.6593,186.8132 h 4.3956 "/></g><g stroke-linejoin="miter" stroke-opacity="1.0" fill-opacity="0.7" font-size="8.791208791208787px" stroke="rgb(0,0,0)" stroke-width="1.1999999999999997" fill="rgb(51,51,51)" stroke-linecap="butt" stroke-miterlimit="10.0"><text dominant-baseline="middle" transform="matrix(1.0000,0.0000,0.0000,1.0000,36.2637,208.7912)" stroke="none" text-anchor="end">20</text></g><g stroke-linejoin="miter" stroke-opacity="0.5" fill-opacity="0.0" stroke="rgb(26,102,204)" stroke-width="1.1999999999999997" fill="rgb(0,0,0)" stroke-linecap="butt" stroke-miterlimit="10.0"><path d="M 40.6593,208.7912 h 4.3956 "/></g><g stroke-linejoin="miter" stroke-opacity="1.0" fill-opacity="0.7" font-size="8.791208791208787px" stroke="rgb(0,0,0)" stroke-width="1.1999999999999997" fill="rgb(51,51,51)" stroke-linecap="butt" stroke-miterlimit="10.0"><text dominant-baseline="middle" transform="matrix(1.0000,0.0000,0.0000,1.0000,36.2637,230.7692)" stroke="none" text-anchor="end">10</text></g><g stroke-linejoin="miter" stroke-opacity="0.5" fill-opacity="0.0" stroke="rgb(26,102,204)" stroke-width="1.1999999999999997" fill="rgb(0,0,0)" stroke-linecap="butt" stroke-miterlimit="10.0"><path d="M 40.6593,230.7692 h 4.3956 "/></g><g stroke-linejoin="miter" stroke-opacity="1.0" fill-opacity="0.7" font-size="8.791208791208787px" stroke="rgb(0,0,0)" stroke-width="1.1999999999999997" fill="rgb(51,51,51)" stroke-linecap="butt" stroke-miterlimit="10.0"><text dominant-baseline="middle" transform="matrix(1.0000,0.0000,0.0000,1.0000,36.2637,252.7473)" stroke="none" text-anchor="end">0.0</text></g><g stroke-linejoin="miter" stroke-opacity="0.5" fill-opacity="0.0" stroke="rgb(26,102,204)" stroke-width="1.1999999999999997" fill="rgb(0,0,0)" stroke-linecap="butt" stroke-miterlimit="10.0"><path d="M 40.6593,252.7473 h 4.3956 "/></g><g stroke-linejoin="miter" stroke-opacity="0.0" fill-opacity="0.5" stroke="rgb(0,0,0)" stroke-width="0.0" fill="rgb(102,26,102)" stroke-linecap="butt" stroke-miterlimit="10.0"><path d="M 267.0330,257.1429 l -0.0000,-4.3956 h -219.7802 l -0.0000,4.3956 Z"/></g><g stroke-linejoin="miter" stroke-opacity="1.0" fill-opacity="0.7" font-size="8.791208791208787px" stroke="rgb(0,0,0)" stroke-width="1.1999999999999997" fill="rgb(51,51,51)" stroke-linecap="butt" stroke-miterlimit="10.0"><text dominant-baseline="text-before-edge" transform="matrix(1.0000,0.0000,0.0000,1.0000,265.9395,263.7363)" stroke="none" text-anchor="middle">2.0e2</text></g><g stroke-linejoin="miter" stroke-opacity="0.5" fill-opacity="0.0" stroke="rgb(26,102,204)" stroke-width="1.1999999999999997" fill="rgb(0,0,0)" stroke-linecap="butt" stroke-miterlimit="10.0"><path d="M 265.9395,254.9451 v 4.3956 "/></g><g stroke-linejoin="miter" stroke-opacity="1.0" fill-opacity="0.7" font-size="8.791208791208787px" stroke="rgb(0,0,0)" stroke-width="1.1999999999999997" fill="rgb(51,51,51)" stroke-linecap="butt" stroke-miterlimit="10.0"><text dominant-baseline="text-before-edge" transform="matrix(1.0000,0.0000,0.0000,1.0000,244.0709,263.7363)" stroke="none" text-anchor="middle">1.8e2</text></g><g stroke-linejoin="miter" stroke-opacity="0.5" fill-opacity="0.0" stroke="rgb(26,102,204)" stroke-width="1.1999999999999997" fill="rgb(0,0,0)" stroke-linecap="butt" stroke-miterlimit="10.0"><path d="M 244.0709,254.9451 v 4.3956 "/></g><g stroke-linejoin="miter" stroke-opacity="1.0" fill-opacity="0.7" font-size="8.791208791208787px" stroke="rgb(0,0,0)" stroke-width="1.1999999999999997" fill="rgb(51,51,51)" stroke-linecap="butt" stroke-miterlimit="10.0"><text dominant-baseline="text-before-edge" transform="matrix(1.0000,0.0000,0.0000,1.0000,222.2022,263.7363)" stroke="none" text-anchor="middle">1.6e2</text></g><g stroke-linejoin="miter" stroke-opacity="0.5" fill-opacity="0.0" stroke="rgb(26,102,204)" stroke-width="1.1999999999999997" fill="rgb(0,0,0)" stroke-linecap="butt" stroke-miterlimit="10.0"><path d="M 222.2022,254.9451 v 4.3956 "/></g><g stroke-linejoin="miter" stroke-opacity="1.0" fill-opacity="0.7" font-size="8.791208791208787px" stroke="rgb(0,0,0)" stroke-width="1.1999999999999997" fill="rgb(51,51,51)" stroke-linecap="butt" stroke-miterlimit="10.0"><text dominant-baseline="text-before-edge" transform="matrix(1.0000,0.0000,0.0000,1.0000,200.3335,263.7363)" stroke="none" text-anchor="middle">1.4e2</text></g><g stroke-linejoin="miter" stroke-opacity="0.5" fill-opacity="0.0" stroke="rgb(26,102,204)" stroke-width="1.1999999999999997" fill="rgb(0,0,0)" stroke-linecap="butt" stroke-miterlimit="10.0"><path d="M 200.3335,254.9451 v 4.3956 "/></g><g stroke-linejoin="miter" stroke-opacity="1.0" fill-opacity="0.7" font-size="8.791208791208787px" stroke="rgb(0,0,0)" stroke-width="1.1999999999999997" fill="rgb(51,51,51)" stroke-linecap="butt" stroke-miterlimit="10.0"><text dominant-baseline="text-before-edge" transform="matrix(1.0000,0.0000,0.0000,1.0000,178.4648,263.7363)" stroke="none" text-anchor="middle">1.2e2</text></g><g stroke-linejoin="miter" stroke-opacity="0.5" fill-opacity="0.0" stroke="rgb(26,102,204)" stroke-width="1.1999999999999997" fill="rgb(0,0,0)" stroke-linecap="butt" stroke-miterlimit="10.0"><path d="M 178.4648,254.9451 v 4.3956 "/></g><g stroke-linejoin="miter" stroke-opacity="1.0" fill-opacity="0.7" font-size="8.791208791208787px" stroke="rgb(0,0,0)" stroke-width="1.1999999999999997" fill="rgb(51,51,51)" stroke-linecap="butt" stroke-miterlimit="10.0"><text dominant-baseline="text-before-edge" transform="matrix(1.0000,0.0000,0.0000,1.0000,156.5961,263.7363)" stroke="none" text-anchor="middle">1.0e2</text></g><g stroke-linejoin="miter" stroke-opacity="0.5" fill-opacity="0.0" stroke="rgb(26,102,204)" stroke-width="1.1999999999999997" fill="rgb(0,0,0)" stroke-linecap="butt" stroke-miterlimit="10.0"><path d="M 156.5961,254.9451 v 4.3956 "/></g><g stroke-linejoin="miter" stroke-opacity="1.0" fill-opacity="0.7" font-size="8.791208791208787px" stroke="rgb(0,0,0)" stroke-width="1.1999999999999997" fill="rgb(51,51,51)" stroke-linecap="butt" stroke-miterlimit="10.0"><text dominant-baseline="text-before-edge" transform="matrix(1.0000,0.0000,0.0000,1.0000,134.7275,263.7363)" stroke="none" text-anchor="middle">80</text></g><g stroke-linejoin="miter" stroke-opacity="0.5" fill-opacity="0.0" stroke="rgb(26,102,204)" stroke-width="1.1999999999999997" fill="rgb(0,0,0)" stroke-linecap="butt" stroke-miterlimit="10.0"><path d="M 134.7275,254.9451 v 4.3956 "/></g><g stroke-linejoin="miter" stroke-opacity="1.0" fill-opacity="0.7" font-size="8.791208791208787px" stroke="rgb(0,0,0)" stroke-width="1.1999999999999997" fill="rgb(51,51,51)" stroke-linecap="butt" stroke-miterlimit="10.0"><text dominant-baseline="text-before-edge" transform="matrix(1.0000,0.0000,0.0000,1.0000,112.8588,263.7363)" stroke="none" text-anchor="middle">60</text></g><g stroke-linejoin="miter" stroke-opacity="0.5" fill-opacity="0.0" stroke="rgb(26,102,204)" stroke-width="1.1999999999999997" fill="rgb(0,0,0)" stroke-linecap="butt" stroke-miterlimit="10.0"><path d="M 112.8588,254.9451 v 4.3956 "/></g><g stroke-linejoin="miter" stroke-opacity="1.0" fill-opacity="0.7" font-size="8.791208791208787px" stroke="rgb(0,0,0)" stroke-width="1.1999999999999997" fill="rgb(51,51,51)" stroke-linecap="butt" stroke-miterlimit="10.0"><text dominant-baseline="text-before-edge" transform="matrix(1.0000,0.0000,0.0000,1.0000,90.9901,263.7363)" stroke="none" text-anchor="middle">40</text></g><g stroke-linejoin="miter" stroke-opacity="0.5" fill-opacity="0.0" stroke="rgb(26,102,204)" stroke-width="1.1999999999999997" fill="rgb(0,0,0)" stroke-linecap="butt" stroke-miterlimit="10.0"><path d="M 90.9901,254.9451 v 4.3956 "/></g><g stroke-linejoin="miter" stroke-opacity="1.0" fill-opacity="0.7" font-size="8.791208791208787px" stroke="rgb(0,0,0)" stroke-width="1.1999999999999997" fill="rgb(51,51,51)" stroke-linecap="butt" stroke-miterlimit="10.0"><text dominant-baseline="text-before-edge" transform="matrix(1.0000,0.0000,0.0000,1.0000,69.1214,263.7363)" stroke="none" text-anchor="middle">20</text></g><g stroke-linejoin="miter" stroke-opacity="0.5" fill-opacity="0.0" stroke="rgb(26,102,204)" stroke-width="1.1999999999999997" fill="rgb(0,0,0)" stroke-linecap="butt" stroke-miterlimit="10.0"><path d="M 69.1214,254.9451 v 4.3956 "/></g><g stroke-linejoin="miter" stroke-opacity="1.0" fill-opacity="0.7" font-size="8.791208791208787px" stroke="rgb(0,0,0)" stroke-width="1.1999999999999997" fill="rgb(51,51,51)" stroke-linecap="butt" stroke-miterlimit="10.0"><text dominant-baseline="text-before-edge" transform="matrix(1.0000,0.0000,0.0000,1.0000,47.2527,263.7363)" stroke="none" text-anchor="middle">0.0</text></g><g stroke-linejoin="miter" stroke-opacity="0.5" fill-opacity="0.0" stroke="rgb(26,102,204)" stroke-width="1.1999999999999997" fill="rgb(0,0,0)" stroke-linecap="butt" stroke-miterlimit="10.0"><path d="M 47.2527,254.9451 v 4.3956 "/></g><g stroke-linejoin="miter" stroke-opacity="1.0" fill-opacity="0.0" stroke="rgb(84,84,84)" stroke-width="0.5999999999999999" fill="rgb(0,0,0)" stroke-linecap="butt" stroke-miterlimit="10.0"><path d="M 47.2527,252.7473 l 1.0934,-2.1978 l 1.0934,-2.1978 l 1.0934,-2.1978 l 1.0934,-2.1978 l 1.0934,-2.1978 l 1.0934,-2.1978 l 1.0934,-2.1978 l 1.0934,-2.1978 l 1.0934,-2.1978 l 1.0934,-2.1978 l 1.0934,-2.1978 l 1.0934,-2.1978 l 1.0934,-2.1978 l 1.0934,-2.1978 l 1.0934,-2.1978 l 1.0934,-2.1978 l 1.0934,-2.1978 l 1.0934,-2.1978 l 1.0934,-2.1978 l 1.0934,-2.1978 l 1.0934,-2.1978 l 1.0934,-2.1978 l 1.0934,-2.1978 l 1.0934,-2.1978 l 1.0934,-2.1978 l 1.0934,-2.1978 l 1.0934,-2.1978 l 1.0934,-2.1978 l 1.0934,-2.1978 l 1.0934,-2.1978 l 1.0934,-2.1978 l 1.0934,-2.1978 l 1.0934,-2.1978 l 1.0934,-2.1978 l 1.0934,-2.1978 l 1.0934,-2.1978 l 1.0934,-2.1978 l 1.0934,-2.1978 l 1.0934,-2.1978 l 1.0934,-2.1978 l 1.0934,-2.1978 l 1.0934,-2.1978 l 1.0934,-2.1978 l 1.0934,-2.1978 l 1.0934,-2.1978 l 1.0934,-2.1978 l 1.0934,-2.1978 l 1.0934,-2.1978 l 1.0934,-2.1978 l 1.0934,-2.1978 l 1.0934,-2.1978 l 1.0934,-2.1978 l 1.0934,-2.1978 l 1.0934,-2.1978 l 1.0934,-2.1978 l 1.0934,-2.1978 l 1.0934,-2.1978 l 1.0934,-2.1978 l 1.0934,-2.1978 l 1.0934,-2.1978 l 1.0934,-2.1978 l 1.0934,-2.1978 l 1.0934,-2.1978 l 1.0934,-2.1978 l 1.0934,-2.1978 l 1.0934,-2.1978 l 1.0934,-2.1978 l 1.0934,-2.1978 l 1.0934,-2.1978 l 1.0934,-2.1978 l 1.0934,-2.1978 l 1.0934,-2.1978 l 1.0934,-2.1978 l 1.0934,-2.1978 l 1.0934,-2.1978 l 1.0934,-2.1978 l 1.0934,-2.1978 l 1.0934,-2.1978 l 1.0934,-2.1978 l 1.0934,-2.1978 l 1.0934,-2.1978 l 1.0934,-2.1978 l 1.0934,-2.1978 l 1.0934,-2.1978 l 1.0934,-2.1978 l 1.0934,-2.1978 l 1.0934,-2.1978 l 1.0934,-2.1978 l 1.0934,-2.1978 l 1.0934,-2.1978 l 1.0934,-2.1978 l 1.0934,-2.1978 l 1.0934,-2.1978 l 1.0934,-2.1978 l 1.0934,-2.1978 l 1.0934,-2.1978 l 1.0934,-2.1978 l 1.0934,-2.1978 l 1.0934,-2.1978 l 1.0934,-2.1978 h 1.0934 h 1.0934 h 1.0934 h 1.0934 h 1.0934 h 1.0934 h 1.0934 h 1.0934 h 1.0934 h 1.0934 h 1.0934 h 1.0934 h 1.0934 h 1.0934 h 1.0934 h 1.0934 h 1.0934 h 1.0934 h 1.0934 h 1.0934 h 1.0934 h 1.0934 h 1.0934 h 1.0934 h 1.0934 h 1.0934 h 1.0934 h 1.0934 h 1.0934 h 1.0934 h 1.0934 h 1.0934 h 1.0934 h 1.0934 h 1.0934 h 1.0934 h 1.0934 h 1.0934 h 1.0934 h 1.0934 h 1.0934 h 1.0934 h 1.0934 h 1.0934 h 1.0934 h 1.0934 h 1.0934 h 1.0934 h 1.0934 h 1.0934 h 1.0934 h 1.0934 h 1.0934 h 1.0934 h 1.0934 h 1.0934 h 1.0934 h 1.0934 h 1.0934 h 1.0934 h 1.0934 h 1.0934 h 1.0934 h 1.0934 h 1.0934 h 1.0934 h 1.0934 h 1.0934 h 1.0934 h 1.0934 h 1.0934 h 1.0934 h 1.0934 h 1.0934 h 1.0934 h 1.0934 h 1.0934 h 1.0934 h 1.0934 h 1.0934 h 1.0934 h 1.0934 h 1.0934 h 1.0934 h 1.0934 h 1.0934 h 1.0934 h 1.0934 h 1.0934 h 1.0934 h 1.0934 h 1.0934 h 1.0934 h 1.0934 h 1.0934 h 1.0934 h 1.0934 h 1.0934 h 1.0934 h 1.0934 h 1.0934 "/></g><g stroke-linejoin="miter" stroke-opacity="1.0" fill-opacity="0.0" stroke="rgb(31,84,212)" stroke-width="1.4999999999999998" fill="rgb(0,0,0)" stroke-linecap="butt" stroke-miterlimit="10.0"><path d="M 47.2527,252.7473 l 1.0934,-1.1044 l 1.0934,-1.1081 l 1.0934,-1.1118 l 1.0934,-1.1155 l 1.0934,-1.1191 l 1.0934,-1.1228 l 1.0934,-1.1265 l 1.0934,-1.1302 l 1.0934,-1.1339 l 1.0934,-1.1375 l 1.0934,-1.1412 l 1.0934,-1.1449 l 1.0934,-1.1486 l 1.0934,-1.1522 l 1.0934,-1.1559 l 1.0934,-1.1596 l 1.0934,-1.1633 l 1.0934,-1.1669 l 1.0934,-1.1706 l 1.0934,-1.1743 l 1.0934,-1.1779 l 1.0934,-1.1816 l 1.0934,-1.1853 l 1.0934,-1.1889 l 1.0934,-1.1926 l 1.0934,-1.1962 l 1.0934,-1.1999 l 1.0934,-1.2035 l 1.0934,-1.2072 l 1.0934,-1.2108 l 1.0934,-1.2145 l 1.0934,-1.2181 l 1.0934,-1.2218 l 1.0934,-1.2254 l 1.0934,-1.2290 l 1.0934,-1.2327 l 1.0934,-1.2363 l 1.0934,-1.2399 l 1.0934,-1.2436 l 1.0934,-1.2472 l 1.0934,-1.2508 l 1.0934,-1.2544 l 1.0934,-1.2580 l 1.0934,-1.2616 l 1.0934,-1.2652 l 1.0934,-1.2689 l 1.0934,-1.2725 l 1.0934,-1.2760 l 1.0934,-1.2796 l 1.0934,-1.2832 l 1.0934,-1.2868 l 1.0934,-1.2904 l 1.0934,-1.2940 l 1.0934,-1.2976 l 1.0934,-1.3011 l 1.0934,-1.3047 l 1.0934,-1.3083 l 1.0934,-1.3118 l 1.0934,-1.3154 l 1.0934,-1.3189 l 1.0934,-1.3225 l 1.0934,-1.3260 l 1.0934,-1.3295 l 1.0934,-1.3331 l 1.0934,-1.3366 l 1.0934,-1.3401 l 1.0934,-1.3436 l 1.0934,-1.3472 l 1.0934,-1.3507 l 1.0934,-1.3542 l 1.0934,-1.3577 l 1.0934,-1.3612 l 1.0934,-1.3647 l 1.0934,-1.3681 l 1.0934,-1.3716 l 1.0934,-1.3751 l 1.0934,-1.3786 l 1.0934,-1.3820 l 1.0934,-1.3855 l 1.0934,-1.3889 l 1.0934,-1.3924 l 1.0934,-1.3958 l 1.0934,-1.3993 l 1.0934,-1.4027 l 1.0934,-1.4061 l 1.0934,-1.4095 l 1.0934,-1.4129 l 1.0934,-1.4164 l 1.0934,-1.4198 l 1.0934,-1.4231 l 1.0934,-1.4265 l 1.0934,-1.4299 l 1.0934,-1.4333 l 1.0934,-1.4367 l 1.0934,-1.4400 l 1.0934,-1.4434 l 1.0934,-1.4467 l 1.0934,-1.4501 l 1.0934,-1.4534 l 1.0934,-1.4567 l 1.0934,-1.4258 l 1.0934,-1.3958 l 1.0934,-1.3666 l 1.0934,-1.3382 l 1.0934,-1.3107 l 1.0934,-1.2840 l 1.0934,-1.2580 l 1.0934,-1.2327 l 1.0934,-1.2081 l 1.0934,-1.1842 l 1.0934,-1.1609 l 1.0934,-1.1383 l 1.0934,-1.1162 l 1.0934,-1.0947 l 1.0934,-1.0738 l 1.0934,-1.0535 l 1.0934,-1.0336 l 1.0934,-1.0143 l 1.0934,-0.9954 l 1.0934,-0.9770 l 1.0934,-0.9591 l 1.0934,-0.9416 l 1.0934,-0.9246 l 1.0934,-0.9079 l 1.0934,-0.8917 l 1.0934,-0.8758 l 1.0934,-0.8603 l 1.0934,-0.8452 l 1.0934,-0.8305 l 1.0934,-0.8161 l 1.0934,-0.8020 l 1.0934,-0.7882 l 1.0934,-0.7748 l 1.0934,-0.7616 l 1.0934,-0.7487 l 1.0934,-0.7362 l 1.0934,-0.7239 l 1.0934,-0.7119 l 1.0934,-0.7001 l 1.0934,-0.6886 l 1.0934,-0.6774 l 1.0934,-0.6663 l 1.0934,-0.6556 l 1.0934,-0.6450 l 1.0934,-0.6347 l 1.0934,-0.6245 l 1.0934,-0.6146 l 1.0934,-0.6049 l 1.0934,-0.5954 l 1.0934,-0.5861 l 1.0934,-0.5770 l 1.0934,-0.5680 l 1.0934,-0.5593 l 1.0934,-0.5507 l 1.0934,-0.5423 l 1.0934,-0.5340 l 1.0934,-0.5259 l 1.0934,-0.5180 l 1.0934,-0.5102 l 1.0934,-0.5025 l 1.0934,-0.4950 l 1.0934,-0.4877 l 1.0934,-0.4805 l 1.0934,-0.4734 l 1.0934,-0.4665 l 1.0934,-0.4596 l 1.0934,-0.4529 l 1.0934,-0.4464 l 1.0934,-0.4399 l 1.0934,-0.4336 l 1.0934,-0.4274 l 1.0934,-0.4213 l 1.0934,-0.4153 l 1.0934,-0.4094 l 1.0934,-0.4036 l 1.0934,-0.3979 l 1.0934,-0.3923 l 1.0934,-0.3869 l 1.0934,-0.3815 l 1.0934,-0.3762 l 1.0934,-0.3710 l 1.0934,-0.3658 l 1.0934,-0.3608 l 1.0934,-0.3559 l 1.0934,-0.3510 l 1.0934,-0.3462 l 1.0934,-0.3415 l 1.0934,-0.3369 l 1.0934,-0.3323 l 1.0934,-0.3279 l 1.0934,-0.3235 l 1.0934,-0.3191 l 1.0934,-0.3149 l 1.0934,-0.3107 l 1.0934,-0.3066 l 1.0934,-0.3025 l 1.0934,-0.2985 l 1.0934,-0.2946 l 1.0934,-0.2908 l 1.0934,-0.2870 l 1.0934,-0.2832 "/></g><g stroke-linejoin="miter" stroke-opacity="1.0" fill-opacity="0.0" stroke="rgb(224,84,31)" stroke-width="1.4999999999999998" fill="rgb(0,0,0)" stroke-linecap="butt" stroke-miterlimit="10.0"><path d="M 47.2527,252.7473 l 1.0934,-1.1567 l 1.0934,-1.1952 l 1.0934,-1.2334 l 1.0934,-1.2713 l 1.0934,-1.3088 l 1.0934,-1.3459 l 1.0934,-1.3824 l 1.0934,-1.4184 l 1.0934,-1.4537 l 1.0934,-1.4883 l 1.0934,-1.5221 l 1.0934,-1.5550 l 1.0934,-1.5871 l 1.0934,-1.6183 l 1.0934,-1.6485 l 1.0934,-1.6778 l 1.0934,-1.7061 l 1.0934,-1.7333 l 1.0934,-1.7595 l 1.0934,-1.7847 l 1.0934,-1.8089 l 1.0934,-1.8320 l 1.0934,-1.8541 l 1.0934,-1.8752 l 1.0934,-1.8953 l 1.0934,-1.9144 l 1.0934,-1.9326 l 1.0934,-1.9498 l 1.0934,-1.9661 l 1.0934,-1.9815 l 1.0934,-1.9961 l 1.0934,-2.0098 l 1.0934,-2.0228 l 1.0934,-2.0350 l 1.0934,-2.0464 l 1.0934,-2.0572 l 1.0934,-2.0672 l 1.0934,-2.0767 l 1.0934,-2.0855 l 1.0934,-2.0938 l 1.0934,-2.1015 l 1.0934,-2.1087 l 1.0934,-2.1154 l 1.0934,-2.1216 l 1.0934,-2.1274 l 1.0934,-2.1328 l 1.0934,-2.1379 l 1.0934,-2.1425 l 1.0934,-2.1468 l 1.0934,-2.1509 l 1.0934,-2.1546 l 1.0934,-2.1580 l 1.0934,-2.1612 l 1.0934,-2.1641 l 1.0934,-2.1668 l 1.0934,-2.1693 l 1.0934,-2.1717 l 1.0934,-2.1738 l 1.0934,-2.1758 l 1.0934,-2.1776 l 1.0934,-2.1793 l 1.0934,-2.1808 l 1.0934,-2.1822 l 1.0934,-2.1835 l 1.0934,-2.1847 l 1.0934,-2.1858 l 1.0934,-2.1868 l 1.0934,-2.1878 l 1.0934,-2.1886 l 1.0934,-2.1894 l 1.0934,-2.1901 l 1.0934,-2.1908 l 1.0934,-2.1914 l 1.0934,-2.1919 l 1.0934,-2.1924 l 1.0934,-2.1929 l 1.0934,-2.1933 l 1.0934,-2.1937 l 1.0934,-2.1941 l 1.0934,-2.1944 l 1.0934,-2.1947 l 1.0934,-2.1950 l 1.0934,-2.1952 l 1.0934,-2.1954 l 1.0934,-2.1956 l 1.0934,-2.1958 l 1.0934,-2.1960 l 1.0934,-2.1962 l 1.0934,-2.1963 l 1.0934,-2.1964 l 1.0934,-2.1966 l 1.0934,-2.1967 l 1.0934,-2.1968 l 1.0934,-2.1969 l 1.0934,-2.1970 l 1.0934,-2.1970 l 1.0934,-2.1971 l 1.0934,-2.1972 l 1.0934,-2.1972 l 1.0934,-2.1973 l 1.0934,-1.9775 l 1.0934,-1.7798 l 1.0934,-1.6018 l 1.0934,-1.4416 l 1.0934,-1.2974 l 1.0934,-1.1677 l 1.0934,-1.0509 l 1.0934,-0.9458 l 1.0934,-0.8512 l 1.0934,-0.7661 l 1.0934,-0.6895 l 1.0934,-0.6206 l 1.0934,-0.5585 l 1.0934,-0.5026 l 1.0934,-0.4524 l 1.0934,-0.4071 l 1.0934,-0.3664 l 1.0934,-0.3298 l 1.0934,-0.2968 l 1.0934,-0.2671 l 1.0934,-0.2404 l 1.0934,-0.2164 l 1.0934,-0.1947 l 1.0934,-0.1753 l 1.0934,-0.1577 l 1.0934,-0.1420 l 1.0934,-0.1278 l 1.0934,-0.1150 l 1.0934,-0.1035 l 1.0934,-0.0931 l 1.0934,-0.0838 l 1.0934,-0.0754 l 1.0934,-0.0679 l 1.0934,-0.0611 l 1.0934,-0.0550 l 1.0934,-0.0495 l 1.0934,-0.0445 l 1.0934,-0.0401 l 1.0934,-0.0361 l 1.0934,-0.0325 l 1.0934,-0.0292 l 1.0934,-0.0263 l 1.0934,-0.0237 l 1.0934,-0.0213 l 1.0934,-0.0192 l 1.0934,-0.0173 l 1.0934,-0.0155 l 1.0934,-0.0140 l 1.0934,-0.0126 l 1.0934,-0.0113 l 1.0934,-0.0102 l 1.0934,-0.0092 l 1.0934,-0.0083 l 1.0934,-0.0074 l 1.0934,-0.0067 l 1.0934,-0.0060 l 1.0934,-0.0054 l 1.0934,-0.0049 l 1.0934,-0.0044 l 1.0934,-0.0039 l 1.0934,-0.0036 l 1.0934,-0.0032 l 1.0934,-0.0029 l 1.0934,-0.0026 l 1.0934,-0.0023 l 1.0934,-0.0021 l 1.0934,-0.0019 l 1.0934,-0.0017 l 1.0934,-0.0015 l 1.0934,-0.0014 l 1.0934,-0.0012 l 1.0934,-0.0011 l 1.0934,-0.0010 l 1.0934,-0.0009 l 1.0934,-0.0008 l 1.0934,-0.0007 l 1.0934,-0.0007 l 1.0934,-0.0006 l 1.0934,-0.0005 l 1.0934,-0.0005 l 1.0934,-0.0004 l 1.0934,-0.0004 l 1.0934,-0.0003 l 1.0934,-0.0003 l 1.0934,-0.0003 l 1.0934,-0.0003 l 1.0934,-0.0002 l 1.0934,-0.0002 l 1.0934,-0.0002 l 1.0934,-0.0002 l 1.0934,-0.0002 l 1.0934,-0.0001 l 1.0934,-0.0001 l 1.0934,-0.0001 l 1.0934,-0.0001 l 1.0934,-0.0001 l 1.0934,-0.0001 l 1.0934,-0.0001 l 1.0934,-0.0001 l 1.0934,-0.0001 l 1.0934,-0.0001 "/></g></svg>