<?xml version="1.0" encoding="UTF-8"?>
<!DOCTYPE svg PUBLIC "-//W3C//DTD SVG 1.1//EN"
    "http://www.w3.org/Graphics/SVG/1.1/DTD/svg11.dtd"><svg xmlns="http://www.w3.org/2000/svg" height="300.0000" stroke-opacity="1" viewBox="0 0 300 300" font-size="1" width="300.0000" xmlns:xlink="http://www.w3.org/1999/xlink" stroke="rgb(0,0,0)" version="1.1"><defs></defs><g stroke-linejoin="miter" stroke-opacity="0.0" fill-opacity="0.5" stroke="rgb(0,0,0)" stroke-width="0.0" fill="rgb(102,26,102)" stroke-linecap="butt" stroke-miterlimit="10.0"><path d="M 175.7630,224.5082 l -0.0000,-3.0567 h -152.8374 l -0.0000,3.0567 Z"/></g><g stroke-linejoin="miter" stroke-opacity="1.0" fill-opacity="0.7" font-size="6.113497073163276px" stroke="rgb(0,0,0)" stroke-width="1.0006951686623378" fill="rgb(51,51,51)" stroke-linecap="butt" stroke-miterlimit="10.0"><text dominant-baseline="text-before-edge" transform="matrix(1.0000,0.0000,0.0000,1.0000,175.7630,229.0934)" stroke="none" text-anchor="middle">0.020</text></g><g stroke-linejoin="miter" stroke-opacity="0.5" fill-opacity="0.0" stroke="rgb(26,102,204)" stroke-width="1.0006951686623378" fill="rgb(0,0,0)" stroke-linecap="butt" stroke-miterlimit="10.0"><path d="M 175.7630,222.9799 v 3.0567 "/></g><g stroke-linejoin="miter" stroke-opacity="1.0" fill-opacity="0.7" font-size="6.113497073163276px" stroke="rgb(0,0,0)" stroke-width="1.0006951686623378" fill="rgb(51,51,51)" stroke-linecap="butt" stroke-miterlimit="10.0"><text dominant-baseline="text-before-edge" transform="matrix(1.0000,0.0000,0.0000,1.0000,137.5537,229.0934)" stroke="none" text-anchor="middle">0.010</text></g><g stroke-linejoin="miter" stroke-opacity="0.5" fill-opacity="0.0" stroke="rgb(26,102,204)" stroke-width="1.0006951686623378" fill="rgb(0,0,0)" stroke-linecap="butt" stroke-miterlimit="10.0"><path d="M 137.5537,222.9799 v 3.0567 "/></g><g stroke-linejoin="miter" stroke-opacity="1.0" fill-opacity="0.7" font-size="6.113497073163276px" stroke="rgb(0,0,0)" stroke-width="1.0006951686623378" fill="rgb(51,51,51)" stroke-linecap="butt" stroke-miterlimit="10.0"><text dominant-baseline="text-before-edge" transform="matrix(1.0000,0.0000,0.0000,1.0000,99.3443,229.0934)" stroke="none" text-anchor="middle">0.0</text></g><g stroke-linejoin="miter" stroke-opacity="0.5" fill-opacity="0.0" stroke="rgb(26,102,204)" stroke-width="1.0006951686623378" fill="rgb(0,0,0)" stroke-linecap="butt" stroke-miterlimit="10.0"><path d="M 99.3443,222.9799 v 3.0567 "/></g><g stroke-linejoin="miter" stroke-opacity="1.0" fill-opacity="0.7" font-size="6.113497073163276px" stroke="rgb(0,0,0)" stroke-width="1.0006951686623378" fill="rgb(51,51,51)" stroke-linecap="butt" stroke-miterlimit="10.0"><text dominant-baseline="text-before-edge" transform="matrix(1.0000,0.0000,0.0000,1.0000,61.1350,229.0934)" stroke="none" text-anchor="middle">-0.010</text></g><g stroke-linejoin="miter" stroke-opacity="0.5" fill-opacity="0.0" stroke="rgb(26,102,204)" stroke-width="1.0006951686623378" fill="rgb(0,0,0)" stroke-linecap="butt" stroke-miterlimit="10.0"><path d="M 61.1350,222.9799 v 3.0567 "/></g><g stroke-linejoin="miter" stroke-opacity="1.0" fill-opacity="0.7" font-size="6.113497073163276px" stroke="rgb(0,0,0)" stroke-width="1.0006951686623378" fill="rgb(51,51,51)" stroke-linecap="butt" stroke-miterlimit="10.0"><text dominant-baseline="text-before-edge" transform="matrix(1.0000,0.0000,0.0000,1.0000,22.9256,229.0934)" stroke="none" text-anchor="middle">-0.020</text></g><g stroke-linejoin="miter" stroke-opacity="0.5" fill-opacity="0.0" stroke="rgb(26,102,204)" stroke-width="1.0006951686623378" fill="rgb(0,0,0)" stroke-linecap="butt" stroke-miterlimit="10.0"><path d="M 22.9256,222.9799 v 3.0567 "/></g><g stroke-linejoin="miter" stroke-opacity="0.0" fill-opacity="1.0" stroke="rgb(0,0,0)" stroke-width="0.0" fill="rgb(93,165,218)" stroke-linecap="butt" stroke-miterlimit="10.0"><path d="M 253.6948,145.0328 l -0.0000,76.4187 h -1.5284 l -0.0000,-76.4187 Z"/></g><g stroke-linejoin="miter" stroke-opacity="0.0" fill-opacity="1.0" stroke="rgb(0,0,0)" stroke-width="0.0" fill="rgb(93,165,218)" stroke-linecap="butt" stroke-miterlimit="10.0"><path d="M 252.1512,145.0328 l -0.0000,73.3276 h -1.5284 l -0.0000,-73.3276 Z"/></g><g stroke-linejoin="miter" stroke-opacity="0.0" fill-opacity="1.0" stroke="rgb(0,0,0)" stroke-width="0.0" fill="rgb(93,165,218)" stroke-linecap="butt" stroke-miterlimit="10.0"><path d="M 250.6075,145.0328 l -0.0000,74.0145 h -1.5284 l -0.0000,-74.0145 Z"/></g><g stroke-linejoin="miter" stroke-opacity="0.0" fill-opacity="1.0" stroke="rgb(0,0,0)" stroke-width="0.0" fill="rgb(93,165,218)" stroke-linecap="butt" stroke-miterlimit="10.0"><path d="M 249.0639,145.0328 l -0.0000,76.4187 h -1.5284 l -0.0000,-76.4187 Z"/></g><g stroke-linejoin="miter" stroke-opacity="0.0" fill-opacity="1.0" stroke="rgb(0,0,0)" stroke-width="0.0" fill="rgb(93,165,218)" stroke-linecap="butt" stroke-miterlimit="10.0"><path d="M 247.5202,145.0328 l -0.0000,73.3276 h -1.5284 l -0.0000,-73.3276 Z"/></g><g stroke-linejoin="miter" stroke-opacity="0.0" fill-opacity="1.0" stroke="rgb(0,0,0)" stroke-width="0.0" fill="rgb(93,165,218)" stroke-linecap="butt" stroke-miterlimit="10.0"><path d="M 245.9766,145.0328 l -0.0000,72.6407 h -1.5284 l -0.0000,-72.6407 Z"/></g><g stroke-linejoin="miter" stroke-opacity="0.0" fill-opacity="1.0" stroke="rgb(0,0,0)" stroke-width="0.0" fill="rgb(93,165,218)" stroke-linecap="butt" stroke-miterlimit="10.0"><path d="M 244.4329,145.0328 l -0.0000,70.2365 h -1.5284 l -0.0000,-70.2365 Z"/></g><g stroke-linejoin="miter" stroke-opacity="0.0" fill-opacity="1.0" stroke="rgb(0,0,0)" stroke-width="0.0" fill="rgb(93,165,218)" stroke-linecap="butt" stroke-miterlimit="10.0"><path d="M 242.8892,145.0328 l -0.0000,70.2365 h -1.5284 l -0.0000,-70.2365 Z"/></g><g stroke-linejoin="miter" stroke-opacity="0.0" fill-opacity="1.0" stroke="rgb(0,0,0)" stroke-width="0.0" fill="rgb(93,165,218)" stroke-linecap="butt" stroke-miterlimit="10.0"><path d="M 241.3456,145.0328 l -0.0000,66.4585 h -1.5284 l -0.0000,-66.4585 Z"/></g><g stroke-linejoin="miter" stroke-opacity="0.0" fill-opacity="1.0" stroke="rgb(0,0,0)" stroke-width="0.0" fill="rgb(93,165,218)" stroke-linecap="butt" stroke-miterlimit="10.0"><path d="M 239.8019,145.0328 l -0.0000,68.5193 h -1.5284 l -0.0000,-68.5193 Z"/></g><g stroke-linejoin="miter" stroke-opacity="0.0" fill-opacity="1.0" stroke="rgb(0,0,0)" stroke-width="0.0" fill="rgb(93,165,218)" stroke-linecap="butt" stroke-miterlimit="10.0"><path d="M 238.2583,145.0328 l -0.0000,71.2669 h -1.5284 l -0.0000,-71.2669 Z"/></g><g stroke-linejoin="miter" stroke-opacity="0.0" fill-opacity="1.0" stroke="rgb(0,0,0)" stroke-width="0.0" fill="rgb(93,165,218)" stroke-linecap="butt" stroke-miterlimit="10.0"><path d="M 236.7146,145.0328 l -0.0000,64.3978 h -1.5284 l -0.0000,-64.3978 Z"/></g><g stroke-linejoin="miter" stroke-opacity="0.0" fill-opacity="1.0" stroke="rgb(0,0,0)" stroke-width="0.0" fill="rgb(93,165,218)" stroke-linecap="butt" stroke-miterlimit="10.0"><path d="M 235.1709,145.0328 l -0.0000,64.3978 h -1.5284 l -0.0000,-64.3978 Z"/></g><g stroke-linejoin="miter" stroke-opacity="0.0" fill-opacity="1.0" stroke="rgb(0,0,0)" stroke-width="0.0" fill="rgb(93,165,218)" stroke-linecap="butt" stroke-miterlimit="10.0"><path d="M 233.6273,145.0328 l -0.0000,62.3371 h -1.5284 l -0.0000,-62.3371 Z"/></g><g stroke-linejoin="miter" stroke-opacity="0.0" fill-opacity="1.0" stroke="rgb(0,0,0)" stroke-width="0.0" fill="rgb(93,165,218)" stroke-linecap="butt" stroke-miterlimit="10.0"><path d="M 232.0836,145.0328 l -0.0000,64.3978 h -1.5284 l -0.0000,-64.3978 Z"/></g><g stroke-linejoin="miter" stroke-opacity="0.0" fill-opacity="1.0" stroke="rgb(0,0,0)" stroke-width="0.0" fill="rgb(93,165,218)" stroke-linecap="butt" stroke-miterlimit="10.0"><path d="M 230.5400,145.0328 l -0.0000,60.6198 h -1.5284 l -0.0000,-60.6198 Z"/></g><g stroke-linejoin="miter" stroke-opacity="0.0" fill-opacity="1.0" stroke="rgb(0,0,0)" stroke-width="0.0" fill="rgb(93,165,218)" stroke-linecap="butt" stroke-miterlimit="10.0"><path d="M 228.9963,145.0328 l -0.0000,58.2156 h -1.5284 l -0.0000,-58.2156 Z"/></g><g stroke-linejoin="miter" stroke-opacity="0.0" fill-opacity="1.0" stroke="rgb(0,0,0)" stroke-width="0.0" fill="rgb(93,165,218)" stroke-linecap="butt" stroke-miterlimit="10.0"><path d="M 227.4527,145.0328 l -0.0000,61.9936 h -1.5284 l -0.0000,-61.9936 Z"/></g><g stroke-linejoin="miter" stroke-opacity="0.0" fill-opacity="1.0" stroke="rgb(0,0,0)" stroke-width="0.0" fill="rgb(93,165,218)" stroke-linecap="butt" stroke-miterlimit="10.0"><path d="M 225.9090,145.0328 l -0.0000,61.6502 h -1.5284 l -0.0000,-61.6502 Z"/></g><g stroke-linejoin="miter" stroke-opacity="0.0" fill-opacity="1.0" stroke="rgb(0,0,0)" stroke-width="0.0" fill="rgb(93,165,218)" stroke-linecap="butt" stroke-miterlimit="10.0"><path d="M 224.3653,145.0328 l -0.0000,51.6900 h -1.5284 l -0.0000,-51.6900 Z"/></g><g stroke-linejoin="miter" stroke-opacity="0.0" fill-opacity="1.0" stroke="rgb(0,0,0)" stroke-width="0.0" fill="rgb(93,165,218)" stroke-linecap="butt" stroke-miterlimit="10.0"><path d="M 222.8217,145.0328 l -0.0000,54.4376 h -1.5284 l -0.0000,-54.4376 Z"/></g><g stroke-linejoin="miter" stroke-opacity="0.0" fill-opacity="1.0" stroke="rgb(0,0,0)" stroke-width="0.0" fill="rgb(93,165,218)" stroke-linecap="butt" stroke-miterlimit="10.0"><path d="M 221.2780,145.0328 l -0.0000,51.6900 h -1.5284 l -0.0000,-51.6900 Z"/></g><g stroke-linejoin="miter" stroke-opacity="0.0" fill-opacity="1.0" stroke="rgb(0,0,0)" stroke-width="0.0" fill="rgb(93,165,218)" stroke-linecap="butt" stroke-miterlimit="10.0"><path d="M 219.7344,145.0328 l -0.0000,46.1947 h -1.5284 l -0.0000,-46.1947 Z"/></g><g stroke-linejoin="miter" stroke-opacity="0.0" fill-opacity="1.0" stroke="rgb(0,0,0)" stroke-width="0.0" fill="rgb(93,165,218)" stroke-linecap="butt" stroke-miterlimit="10.0"><path d="M 218.1907,145.0328 l -0.0000,47.5685 h -1.5284 l -0.0000,-47.5685 Z"/></g><g stroke-linejoin="miter" stroke-opacity="0.0" fill-opacity="1.0" stroke="rgb(0,0,0)" stroke-width="0.0" fill="rgb(93,165,218)" stroke-linecap="butt" stroke-miterlimit="10.0"><path d="M 216.6471,145.0328 l -0.0000,41.0429 h -1.5284 l -0.0000,-41.0429 Z"/></g><g stroke-linejoin="miter" stroke-opacity="0.0" fill-opacity="1.0" stroke="rgb(0,0,0)" stroke-width="0.0" fill="rgb(93,165,218)" stroke-linecap="butt" stroke-miterlimit="10.0"><path d="M 215.1034,145.0328 l -0.0000,40.3559 h -1.5284 l -0.0000,-40.3559 Z"/></g><g stroke-linejoin="miter" stroke-opacity="0.0" fill-opacity="1.0" stroke="rgb(0,0,0)" stroke-width="0.0" fill="rgb(93,165,218)" stroke-linecap="butt" stroke-miterlimit="10.0"><path d="M 213.5597,145.0328 l -0.0000,35.8910 h -1.5284 l -0.0000,-35.8910 Z"/></g><g stroke-linejoin="miter" stroke-opacity="0.0" fill-opacity="1.0" stroke="rgb(0,0,0)" stroke-width="0.0" fill="rgb(93,165,218)" stroke-linecap="butt" stroke-miterlimit="10.0"><path d="M 212.0161,145.0328 l -0.0000,36.5779 h -1.5284 l -0.0000,-36.5779 Z"/></g><g stroke-linejoin="miter" stroke-opacity="0.0" fill-opacity="1.0" stroke="rgb(0,0,0)" stroke-width="0.0" fill="rgb(93,165,218)" stroke-linecap="butt" stroke-miterlimit="10.0"><path d="M 210.4724,145.0328 l -0.0000,24.2136 h -1.5284 l -0.0000,-24.2136 Z"/></g><g stroke-linejoin="miter" stroke-opacity="0.0" fill-opacity="1.0" stroke="rgb(0,0,0)" stroke-width="0.0" fill="rgb(93,165,218)" stroke-linecap="butt" stroke-miterlimit="10.0"><path d="M 208.9288,145.0328 l -0.0000,22.4963 h -1.5284 l -0.0000,-22.4963 Z"/></g><g stroke-linejoin="miter" stroke-opacity="0.0" fill-opacity="1.0" stroke="rgb(0,0,0)" stroke-width="0.0" fill="rgb(93,165,218)" stroke-linecap="butt" stroke-miterlimit="10.0"><path d="M 207.3851,145.0328 l -0.0000,19.0617 h -1.5284 l -0.0000,-19.0617 Z"/></g><g stroke-linejoin="miter" stroke-opacity="0.0" fill-opacity="1.0" stroke="rgb(0,0,0)" stroke-width="0.0" fill="rgb(93,165,218)" stroke-linecap="butt" stroke-miterlimit="10.0"><path d="M 205.8414,145.0328 l -0.0000,19.4052 h -1.5284 l -0.0000,-19.4052 Z"/></g><g stroke-linejoin="miter" stroke-opacity="0.0" fill-opacity="1.0" stroke="rgb(0,0,0)" stroke-width="0.0" fill="rgb(93,165,218)" stroke-linecap="butt" stroke-miterlimit="10.0"><path d="M 204.2978,145.0328 l -0.0000,10.4754 h -1.5284 l -0.0000,-10.4754 Z"/></g><g stroke-linejoin="miter" stroke-opacity="0.0" fill-opacity="1.0" stroke="rgb(0,0,0)" stroke-width="0.0" fill="rgb(93,165,218)" stroke-linecap="butt" stroke-miterlimit="10.0"><path d="M 202.7541,145.0328 l -0.0000,9.1016 h -1.5284 l -0.0000,-9.1016 Z"/></g><g stroke-linejoin="miter" stroke-opacity="0.0" fill-opacity="1.0" stroke="rgb(0,0,0)" stroke-width="0.0" fill="rgb(93,165,218)" stroke-linecap="butt" stroke-miterlimit="10.0"><path d="M 201.2105,145.0328 l -0.0000,-1.8890 h -1.5284 l -0.0000,1.8890 Z"/></g><g stroke-linejoin="miter" stroke-opacity="0.0" fill-opacity="1.0" stroke="rgb(0,0,0)" stroke-width="0.0" fill="rgb(93,165,218)" stroke-linecap="butt" stroke-miterlimit="10.0"><path d="M 199.6668,145.0328 l -0.0000,-7.7277 h -1.5284 l -0.0000,7.7277 Z"/></g><g stroke-linejoin="miter" stroke-opacity="0.0" fill-opacity="1.0" stroke="rgb(0,0,0)" stroke-width="0.0" fill="rgb(93,165,218)" stroke-linecap="butt" stroke-miterlimit="10.0"><path d="M 198.1232,145.0328 l -0.0000,-12.1926 h -1.5284 l -0.0000,12.1926 Z"/></g><g stroke-linejoin="miter" stroke-opacity="0.0" fill-opacity="1.0" stroke="rgb(0,0,0)" stroke-width="0.0" fill="rgb(93,165,218)" stroke-linecap="butt" stroke-miterlimit="10.0"><path d="M 196.5795,145.0328 l -0.0000,-9.7885 h -1.5284 l -0.0000,9.7885 Z"/></g><g stroke-linejoin="miter" stroke-opacity="0.0" fill-opacity="1.0" stroke="rgb(0,0,0)" stroke-width="0.0" fill="rgb(93,165,218)" stroke-linecap="butt" stroke-miterlimit="10.0"><path d="M 195.0358,145.0328 l -0.0000,-31.7696 h -1.5284 l -0.0000,31.7696 Z"/></g><g stroke-linejoin="miter" stroke-opacity="0.0" fill-opacity="1.0" stroke="rgb(0,0,0)" stroke-width="0.0" fill="rgb(93,165,218)" stroke-linecap="butt" stroke-miterlimit="10.0"><path d="M 193.4922,145.0328 l -0.0000,-30.0523 h -1.5284 l -0.0000,30.0523 Z"/></g><g stroke-linejoin="miter" stroke-opacity="0.0" fill-opacity="1.0" stroke="rgb(0,0,0)" stroke-width="0.0" fill="rgb(93,165,218)" stroke-linecap="butt" stroke-miterlimit="10.0"><path d="M 191.9485,145.0328 l -0.0000,-30.0523 h -1.5284 l -0.0000,30.0523 Z"/></g><g stroke-linejoin="miter" stroke-opacity="0.0" fill-opacity="1.0" stroke="rgb(0,0,0)" stroke-width="0.0" fill="rgb(93,165,218)" stroke-linecap="butt" stroke-miterlimit="10.0"><path d="M 190.4049,145.0328 l -0.0000,-33.4869 h -1.5284 l -0.0000,33.4869 Z"/></g><g stroke-linejoin="miter" stroke-opacity="0.0" fill-opacity="1.0" stroke="rgb(0,0,0)" stroke-width="0.0" fill="rgb(93,165,218)" stroke-linecap="butt" stroke-miterlimit="10.0"><path d="M 188.8612,145.0328 l -0.0000,-31.0827 h -1.5284 l -0.0000,31.0827 Z"/></g><g stroke-linejoin="miter" stroke-opacity="0.0" fill-opacity="1.0" stroke="rgb(0,0,0)" stroke-width="0.0" fill="rgb(93,165,218)" stroke-linecap="butt" stroke-miterlimit="10.0"><path d="M 187.3176,145.0328 l -0.0000,-51.0031 h -1.5284 l -0.0000,51.0031 Z"/></g><g stroke-linejoin="miter" stroke-opacity="0.0" fill-opacity="1.0" stroke="rgb(0,0,0)" stroke-width="0.0" fill="rgb(93,165,218)" stroke-linecap="butt" stroke-miterlimit="10.0"><path d="M 185.7739,145.0328 l -0.0000,-56.4983 h -1.5284 l -0.0000,56.4983 Z"/></g><g stroke-linejoin="miter" stroke-opacity="0.0" fill-opacity="1.0" stroke="rgb(0,0,0)" stroke-width="0.0" fill="rgb(93,165,218)" stroke-linecap="butt" stroke-miterlimit="10.0"><path d="M 184.2302,145.0328 l -0.0000,-71.6103 h -1.5284 l -0.0000,71.6103 Z"/></g><g stroke-linejoin="miter" stroke-opacity="0.0" fill-opacity="1.0" stroke="rgb(0,0,0)" stroke-width="0.0" fill="rgb(93,165,218)" stroke-linecap="butt" stroke-miterlimit="10.0"><path d="M 182.6866,145.0328 l -0.0000,-53.4072 h -1.5284 l -0.0000,53.4072 Z"/></g><g stroke-linejoin="miter" stroke-opacity="0.0" fill-opacity="1.0" stroke="rgb(0,0,0)" stroke-width="0.0" fill="rgb(93,165,218)" stroke-linecap="butt" stroke-miterlimit="10.0"><path d="M 181.1429,145.0328 l -0.0000,-68.5193 h -1.5284 l -0.0000,68.5193 Z"/></g><g stroke-linejoin="miter" stroke-opacity="0.0" fill-opacity="1.0" stroke="rgb(0,0,0)" stroke-width="0.0" fill="rgb(93,165,218)" stroke-linecap="butt" stroke-miterlimit="10.0"><path d="M 179.5993,145.0328 l -0.0000,-59.9329 h -1.5284 l -0.0000,59.9329 Z"/></g><g stroke-linejoin="miter" stroke-opacity="0.0" fill-opacity="1.0" stroke="rgb(0,0,0)" stroke-width="0.0" fill="rgb(93,165,218)" stroke-linecap="butt" stroke-miterlimit="10.0"><path d="M 178.0556,145.0328 l -0.0000,-55.4680 h -1.5284 l -0.0000,55.4680 Z"/></g><g stroke-linejoin="miter" stroke-opacity="0.0" fill-opacity="1.0" stroke="rgb(0,0,0)" stroke-width="0.0" fill="rgb(93,165,218)" stroke-linecap="butt" stroke-miterlimit="10.0"><path d="M 176.5119,145.0328 l -0.0000,-76.4187 h -1.5284 l -0.0000,76.4187 Z"/></g><g stroke-linejoin="miter" stroke-opacity="0.0" fill-opacity="1.0" stroke="rgb(0,0,0)" stroke-width="0.0" fill="rgb(93,165,218)" stroke-linecap="butt" stroke-miterlimit="10.0"><path d="M 174.9683,145.0328 l -0.0000,-64.0543 h -1.5284 l -0.0000,64.0543 Z"/></g><g stroke-linejoin="miter" stroke-opacity="0.0" fill-opacity="1.0" stroke="rgb(0,0,0)" stroke-width="0.0" fill="rgb(93,165,218)" stroke-linecap="butt" stroke-miterlimit="10.0"><path d="M 173.4246,145.0328 l -0.0000,-55.4680 h -1.5284 l -0.0000,55.4680 Z"/></g><g stroke-linejoin="miter" stroke-opacity="0.0" fill-opacity="1.0" stroke="rgb(0,0,0)" stroke-width="0.0" fill="rgb(93,165,218)" stroke-linecap="butt" stroke-miterlimit="10.0"><path d="M 171.8810,145.0328 l -0.0000,-45.5078 h -1.5284 l -0.0000,45.5078 Z"/></g><g stroke-linejoin="miter" stroke-opacity="0.0" fill-opacity="1.0" stroke="rgb(0,0,0)" stroke-width="0.0" fill="rgb(93,165,218)" stroke-linecap="butt" stroke-miterlimit="10.0"><path d="M 170.3373,145.0328 l -0.0000,-45.1643 h -1.5284 l -0.0000,45.1643 Z"/></g><g stroke-linejoin="miter" stroke-opacity="0.0" fill-opacity="1.0" stroke="rgb(0,0,0)" stroke-width="0.0" fill="rgb(93,165,218)" stroke-linecap="butt" stroke-miterlimit="10.0"><path d="M 168.7937,145.0328 l -0.0000,-43.4470 h -1.5284 l -0.0000,43.4470 Z"/></g><g stroke-linejoin="miter" stroke-opacity="0.0" fill-opacity="1.0" stroke="rgb(0,0,0)" stroke-width="0.0" fill="rgb(93,165,218)" stroke-linecap="butt" stroke-miterlimit="10.0"><path d="M 167.2500,145.0328 l -0.0000,-26.6178 h -1.5284 l -0.0000,26.6178 Z"/></g><g stroke-linejoin="miter" stroke-opacity="0.0" fill-opacity="1.0" stroke="rgb(0,0,0)" stroke-width="0.0" fill="rgb(93,165,218)" stroke-linecap="butt" stroke-miterlimit="10.0"><path d="M 165.7063,145.0328 l -0.0000,-26.6178 h -1.5284 l -0.0000,26.6178 Z"/></g><g stroke-linejoin="miter" stroke-opacity="0.0" fill-opacity="1.0" stroke="rgb(0,0,0)" stroke-width="0.0" fill="rgb(93,165,218)" stroke-linecap="butt" stroke-miterlimit="10.0"><path d="M 164.1627,145.0328 l -0.0000,-23.8701 h -1.5284 l -0.0000,23.8701 Z"/></g><g stroke-linejoin="miter" stroke-opacity="0.0" fill-opacity="1.0" stroke="rgb(0,0,0)" stroke-width="0.0" fill="rgb(93,165,218)" stroke-linecap="butt" stroke-miterlimit="10.0"><path d="M 162.6190,145.0328 l -0.0000,-8.7581 h -1.5284 l -0.0000,8.7581 Z"/></g><g stroke-linejoin="miter" stroke-opacity="0.0" fill-opacity="1.0" stroke="rgb(0,0,0)" stroke-width="0.0" fill="rgb(93,165,218)" stroke-linecap="butt" stroke-miterlimit="10.0"><path d="M 161.0754,145.0328 l -0.0000,-4.9801 h -1.5284 l -0.0000,4.9801 Z"/></g><g stroke-linejoin="miter" stroke-opacity="0.0" fill-opacity="1.0" stroke="rgb(0,0,0)" stroke-width="0.0" fill="rgb(93,165,218)" stroke-linecap="butt" stroke-miterlimit="10.0"><path d="M 159.5317,145.0328 l -0.0000,5.6670 h -1.5284 l -0.0000,-5.6670 Z"/></g><g stroke-linejoin="miter" stroke-opacity="0.0" fill-opacity="1.0" stroke="rgb(0,0,0)" stroke-width="0.0" fill="rgb(93,165,218)" stroke-linecap="butt" stroke-miterlimit="10.0"><path d="M 157.9880,145.0328 l -0.0000,2.5759 h -1.5284 l -0.0000,-2.5759 Z"/></g><g stroke-linejoin="miter" stroke-opacity="0.0" fill-opacity="1.0" stroke="rgb(0,0,0)" stroke-width="0.0" fill="rgb(93,165,218)" stroke-linecap="butt" stroke-miterlimit="10.0"><path d="M 156.4444,145.0328 l -0.0000,5.3236 h -1.5284 l -0.0000,-5.3236 Z"/></g><g stroke-linejoin="miter" stroke-opacity="0.0" fill-opacity="1.0" stroke="rgb(0,0,0)" stroke-width="0.0" fill="rgb(93,165,218)" stroke-linecap="butt" stroke-miterlimit="10.0"><path d="M 154.9007,145.0328 l -0.0000,10.4754 h -1.5284 l -0.0000,-10.4754 Z"/></g><g stroke-linejoin="miter" stroke-opacity="0.0" fill-opacity="1.0" stroke="rgb(0,0,0)" stroke-width="0.0" fill="rgb(93,165,218)" stroke-linecap="butt" stroke-miterlimit="10.0"><path d="M 153.3571,145.0328 l -0.0000,23.8701 h -1.5284 l -0.0000,-23.8701 Z"/></g><g stroke-linejoin="miter" stroke-opacity="0.0" fill-opacity="1.0" stroke="rgb(0,0,0)" stroke-width="0.0" fill="rgb(93,165,218)" stroke-linecap="butt" stroke-miterlimit="10.0"><path d="M 151.8134,145.0328 l -0.0000,14.2534 h -1.5284 l -0.0000,-14.2534 Z"/></g><g stroke-linejoin="miter" stroke-opacity="0.0" fill-opacity="1.0" stroke="rgb(0,0,0)" stroke-width="0.0" fill="rgb(93,165,218)" stroke-linecap="butt" stroke-miterlimit="10.0"><path d="M 150.2698,145.0328 l -0.0000,20.4356 h -1.5284 l -0.0000,-20.4356 Z"/></g><g stroke-linejoin="miter" stroke-opacity="0.0" fill-opacity="1.0" stroke="rgb(0,0,0)" stroke-width="0.0" fill="rgb(93,165,218)" stroke-linecap="butt" stroke-miterlimit="10.0"><path d="M 148.7261,145.0328 l -0.0000,31.0827 h -1.5284 l -0.0000,-31.0827 Z"/></g><g stroke-linejoin="miter" stroke-opacity="0.0" fill-opacity="1.0" stroke="rgb(0,0,0)" stroke-width="0.0" fill="rgb(93,165,218)" stroke-linecap="butt" stroke-miterlimit="10.0"><path d="M 147.1824,145.0328 l -0.0000,32.4565 h -1.5284 l -0.0000,-32.4565 Z"/></g><g stroke-linejoin="miter" stroke-opacity="0.0" fill-opacity="1.0" stroke="rgb(0,0,0)" stroke-width="0.0" fill="rgb(93,165,218)" stroke-linecap="butt" stroke-miterlimit="10.0"><path d="M 145.6388,145.0328 l -0.0000,33.4869 h -1.5284 l -0.0000,-33.4869 Z"/></g><g stroke-linejoin="miter" stroke-opacity="0.0" fill-opacity="1.0" stroke="rgb(0,0,0)" stroke-width="0.0" fill="rgb(93,165,218)" stroke-linecap="butt" stroke-miterlimit="10.0"><path d="M 144.0951,145.0328 l -0.0000,31.4261 h -1.5284 l -0.0000,-31.4261 Z"/></g><g stroke-linejoin="miter" stroke-opacity="0.0" fill-opacity="1.0" stroke="rgb(0,0,0)" stroke-width="0.0" fill="rgb(93,165,218)" stroke-linecap="butt" stroke-miterlimit="10.0"><path d="M 142.5515,145.0328 l -0.0000,42.0732 h -1.5284 l -0.0000,-42.0732 Z"/></g><g stroke-linejoin="miter" stroke-opacity="0.0" fill-opacity="1.0" stroke="rgb(0,0,0)" stroke-width="0.0" fill="rgb(93,165,218)" stroke-linecap="butt" stroke-miterlimit="10.0"><path d="M 141.0078,145.0328 l -0.0000,40.6994 h -1.5284 l -0.0000,-40.6994 Z"/></g><g stroke-linejoin="miter" stroke-opacity="0.0" fill-opacity="1.0" stroke="rgb(0,0,0)" stroke-width="0.0" fill="rgb(93,165,218)" stroke-linecap="butt" stroke-miterlimit="10.0"><path d="M 139.4642,145.0328 l -0.0000,51.6900 h -1.5284 l -0.0000,-51.6900 Z"/></g><g stroke-linejoin="miter" stroke-opacity="0.0" fill-opacity="1.0" stroke="rgb(0,0,0)" stroke-width="0.0" fill="rgb(93,165,218)" stroke-linecap="butt" stroke-miterlimit="10.0"><path d="M 137.9205,145.0328 l -0.0000,46.8816 h -1.5284 l -0.0000,-46.8816 Z"/></g><g stroke-linejoin="miter" stroke-opacity="0.0" fill-opacity="1.0" stroke="rgb(0,0,0)" stroke-width="0.0" fill="rgb(93,165,218)" stroke-linecap="butt" stroke-miterlimit="10.0"><path d="M 136.3768,145.0328 l -0.0000,46.8816 h -1.5284 l -0.0000,-46.8816 Z"/></g><g stroke-linejoin="miter" stroke-opacity="0.0" fill-opacity="1.0" stroke="rgb(0,0,0)" stroke-width="0.0" fill="rgb(93,165,218)" stroke-linecap="butt" stroke-miterlimit="10.0"><path d="M 134.8332,145.0328 l -0.0000,50.3161 h -1.5284 l -0.0000,-50.3161 Z"/></g><g stroke-linejoin="miter" stroke-opacity="0.0" fill-opacity="1.0" stroke="rgb(0,0,0)" stroke-width="0.0" fill="rgb(93,165,218)" stroke-linecap="butt" stroke-miterlimit="10.0"><path d="M 133.2895,145.0328 l -0.0000,51.0031 h -1.5284 l -0.0000,-51.0031 Z"/></g><g stroke-linejoin="miter" stroke-opacity="0.0" fill-opacity="1.0" stroke="rgb(0,0,0)" stroke-width="0.0" fill="rgb(93,165,218)" stroke-linecap="butt" stroke-miterlimit="10.0"><path d="M 131.7459,145.0328 l -0.0000,60.9632 h -1.5284 l -0.0000,-60.9632 Z"/></g><g stroke-linejoin="miter" stroke-opacity="0.0" fill-opacity="1.0" stroke="rgb(0,0,0)" stroke-width="0.0" fill="rgb(93,165,218)" stroke-linecap="butt" stroke-miterlimit="10.0"><path d="M 130.2022,145.0328 l -0.0000,62.6805 h -1.5284 l -0.0000,-62.6805 Z"/></g><g stroke-linejoin="miter" stroke-opacity="0.0" fill-opacity="1.0" stroke="rgb(0,0,0)" stroke-width="0.0" fill="rgb(93,165,218)" stroke-linecap="butt" stroke-miterlimit="10.0"><path d="M 128.6585,145.0328 l -0.0000,56.1549 h -1.5284 l -0.0000,-56.1549 Z"/></g><g stroke-linejoin="miter" stroke-opacity="0.0" fill-opacity="1.0" stroke="rgb(0,0,0)" stroke-width="0.0" fill="rgb(93,165,218)" stroke-linecap="butt" stroke-miterlimit="10.0"><path d="M 127.1149,145.0328 l -0.0000,62.6805 h -1.5284 l -0.0000,-62.6805 Z"/></g><g stroke-linejoin="miter" stroke-opacity="0.0" fill-opacity="1.0" stroke="rgb(0,0,0)" stroke-width="0.0" fill="rgb(93,165,218)" stroke-linecap="butt" stroke-miterlimit="10.0"><path d="M 125.5712,145.0328 l -0.0000,63.7109 h -1.5284 l -0.0000,-63.7109 Z"/></g><g stroke-linejoin="miter" stroke-opacity="0.0" fill-opacity="1.0" stroke="rgb(0,0,0)" stroke-width="0.0" fill="rgb(93,165,218)" stroke-linecap="butt" stroke-miterlimit="10.0"><path d="M 124.0276,145.0328 l -0.0000,60.6198 h -1.5284 l -0.0000,-60.6198 Z"/></g><g stroke-linejoin="miter" stroke-opacity="0.0" fill-opacity="1.0" stroke="rgb(0,0,0)" stroke-width="0.0" fill="rgb(93,165,218)" stroke-linecap="butt" stroke-miterlimit="10.0"><path d="M 122.4839,145.0328 l -0.0000,62.3371 h -1.5284 l -0.0000,-62.3371 Z"/></g><g stroke-linejoin="miter" stroke-opacity="0.0" fill-opacity="1.0" stroke="rgb(0,0,0)" stroke-width="0.0" fill="rgb(93,165,218)" stroke-linecap="butt" stroke-miterlimit="10.0"><path d="M 120.9403,145.0328 l -0.0000,64.0543 h -1.5284 l -0.0000,-64.0543 Z"/></g><g stroke-linejoin="miter" stroke-opacity="0.0" fill-opacity="1.0" stroke="rgb(0,0,0)" stroke-width="0.0" fill="rgb(93,165,218)" stroke-linecap="butt" stroke-miterlimit="10.0"><path d="M 119.3966,145.0328 l -0.0000,65.7716 h -1.5284 l -0.0000,-65.7716 Z"/></g><g stroke-linejoin="miter" stroke-opacity="0.0" fill-opacity="1.0" stroke="rgb(0,0,0)" stroke-width="0.0" fill="rgb(93,165,218)" stroke-linecap="butt" stroke-miterlimit="10.0"><path d="M 117.8529,145.0328 l -0.0000,65.7716 h -1.5284 l -0.0000,-65.7716 Z"/></g><g stroke-linejoin="miter" stroke-opacity="0.0" fill-opacity="1.0" stroke="rgb(0,0,0)" stroke-width="0.0" fill="rgb(93,165,218)" stroke-linecap="butt" stroke-miterlimit="10.0"><path d="M 116.3093,145.0328 l -0.0000,65.0847 h -1.5284 l -0.0000,-65.0847 Z"/></g><g stroke-linejoin="miter" stroke-opacity="0.0" fill-opacity="1.0" stroke="rgb(0,0,0)" stroke-width="0.0" fill="rgb(93,165,218)" stroke-linecap="butt" stroke-miterlimit="10.0"><path d="M 114.7656,145.0328 l -0.0000,68.1758 h -1.5284 l -0.0000,-68.1758 Z"/></g><g stroke-linejoin="miter" stroke-opacity="0.0" fill-opacity="1.0" stroke="rgb(0,0,0)" stroke-width="0.0" fill="rgb(93,165,218)" stroke-linecap="butt" stroke-miterlimit="10.0"><path d="M 113.2220,145.0328 l -0.0000,72.2973 h -1.5284 l -0.0000,-72.2973 Z"/></g><g stroke-linejoin="miter" stroke-opacity="0.0" fill-opacity="1.0" stroke="rgb(0,0,0)" stroke-width="0.0" fill="rgb(93,165,218)" stroke-linecap="butt" stroke-miterlimit="10.0"><path d="M 111.6783,145.0328 l -0.0000,68.8627 h -1.5284 l -0.0000,-68.8627 Z"/></g><g stroke-linejoin="miter" stroke-opacity="0.0" fill-opacity="1.0" stroke="rgb(0,0,0)" stroke-width="0.0" fill="rgb(93,165,218)" stroke-linecap="butt" stroke-miterlimit="10.0"><path d="M 110.1346,145.0328 l -0.0000,70.9234 h -1.5284 l -0.0000,-70.9234 Z"/></g><g stroke-linejoin="miter" stroke-opacity="0.0" fill-opacity="1.0" stroke="rgb(0,0,0)" stroke-width="0.0" fill="rgb(93,165,218)" stroke-linecap="butt" stroke-miterlimit="10.0"><path d="M 108.5910,145.0328 l -0.0000,75.7318 h -1.5284 l -0.0000,-75.7318 Z"/></g><g stroke-linejoin="miter" stroke-opacity="0.0" fill-opacity="1.0" stroke="rgb(0,0,0)" stroke-width="0.0" fill="rgb(93,165,218)" stroke-linecap="butt" stroke-miterlimit="10.0"><path d="M 107.0473,145.0328 l -0.0000,70.9234 h -1.5284 l -0.0000,-70.9234 Z"/></g><g stroke-linejoin="miter" stroke-opacity="0.0" fill-opacity="1.0" stroke="rgb(0,0,0)" stroke-width="0.0" fill="rgb(93,165,218)" stroke-linecap="butt" stroke-miterlimit="10.0"><path d="M 105.5037,145.0328 l -0.0000,69.5496 h -1.5284 l -0.0000,-69.5496 Z"/></g><g stroke-linejoin="miter" stroke-opacity="0.0" fill-opacity="1.0" stroke="rgb(0,0,0)" stroke-width="0.0" fill="rgb(93,165,218)" stroke-linecap="butt" stroke-miterlimit="10.0"><path d="M 103.9600,145.0328 l -0.0000,74.3580 h -1.5284 l -0.0000,-74.3580 Z"/></g><g stroke-linejoin="miter" stroke-opacity="0.0" fill-opacity="1.0" stroke="rgb(0,0,0)" stroke-width="0.0" fill="rgb(93,165,218)" stroke-linecap="butt" stroke-miterlimit="10.0"><path d="M 102.4164,145.0328 l -0.0000,75.7318 h -1.5284 l -0.0000,-75.7318 Z"/></g><g stroke-linejoin="miter" stroke-opacity="0.0" fill-opacity="1.0" stroke="rgb(0,0,0)" stroke-width="0.0" fill="rgb(93,165,218)" stroke-linecap="butt" stroke-miterlimit="10.0"><path d="M 100.8727,145.0328 l -0.0000,75.3883 h -1.5284 l -0.0000,-75.3883 Z"/></g></svg>