<?xml version="1.0" encoding="UTF-8"?>
<!DOCTYPE svg PUBLIC "-//W3C//DTD SVG 1.1//EN"
    "http://www.w3.org/Graphics/SVG/1.1/DTD/svg11.dtd"><svg xmlns="http://www.w3.org/2000/svg" height="300.0000" stroke-opacity="1" viewBox="0 0 300 300" font-size="1" width="300.0000" xmlns:xlink="http://www.w3.org/1999/xlink" stroke="rgb(0,0,0)" version="1.1"><defs></defs><g stroke-linejoin="miter" stroke-opacity="0.0" fill-opacity="0.5" stroke="rgb(0,0,0)" stroke-width="0.0" fill="rgb(102,26,102)" stroke-linecap="butt" stroke-miterlimit="10.0"><path d="M 47.2527,252.7473 l -0.0000,-219.7802 h -4.3956 l -0.0000,219.7802 Z"/></g><g stroke-linejoin="miter" stroke-opacity="1.0" fill-opacity="0.7" font-size="8.791208791208787px" stroke="rgb(0,0,0)" stroke-width="1.1999999999999997" fill="rgb(51,51,51)" stroke-linecap="butt" stroke-miterlimit="10.0"><text dominant-baseline="middle" transform="matrix(1.0000,0.0000,0.0000,1.0000,36.2637,32.9670)" stroke="none" text-anchor="end">1.0e2</text></g><g stroke-linejoin="miter" stroke-opacity="0.5" fill-opacity="0.0" stroke="rgb(26,102,204)" stroke-width="1.1999999999999997" fill="rgb(0,0,0)" stroke-linecap="butt" stroke-miterlimit="10.0"><path d="M 40.6593,32.9670 h 4.3956 "/></g><g stroke-linejoin="miter" stroke-opacity="1.0" fill-opacity="0.7" font-size="8.791208791208787px" stroke="rgb(0,0,0)" stroke-width="1.1999999999999997" fill="rgb(51,51,51)" stroke-linecap="butt" stroke-miterlimit="10.0"><text dominant-baseline="middle" transform="matrix(1.0000,0.0000,0.0000,1.0000,36.2637,54.9451)" stroke="none" text-anchor="end">90</text></g><g stroke-linejoin="miter" stroke-opacity="0.5" fill-opacity="0.0" stroke="rgb(26,102,204)" stroke-width="1.1999999999999997" fill="rgb(0,0,0)" stroke-linecap="butt" stroke-miterlimit="10.0"><path d="M 40.6593,54.9451 h 4.3956 "/></g><g stroke-linejoin="miter" stroke-opacity="1.0" fill-opacity="0.7" font-size="8.791208791208787px" stroke="rgb(0,0,0)" stroke-width="1.1999999999999997" fill="rgb(51,51,51)" stroke-linecap="butt" stroke-miterlimit="10.0"><text dominant-baseline="middle" transform="matrix(1.0000,0.0000,0.0000,1.0000,36.2637,76.9231)" stroke="none" text-anchor="end">80</text></g><g stroke-linejoin="miter" stroke-opacity="0.5" fill-opacity="0.0" stroke="rgb(26,102,204)" stroke-width="1.1999999999999997" fill="rgb(0,0,0)" stroke-linecap="butt" stroke-miterlimit="10.0"><path d="M 40.6593,76.9231 h 4.3956 "/></g><g stroke-linejoin="miter" stroke-opacity="1.0" fill-opacity="0.7" font-size="8.791208791208787px" stroke="rgb(0,0,0)" stroke-width="1.1999999999999997" fill="rgb(51,51,51)" stroke-linecap="butt" stroke-miterlimit="10.0"><text dominant-baseline="middle" transform="matrix(1.0000,0.0000,0.0000,1.0000,36.2637,98.9011)" stroke="none" text-anchor="end">70</text></g><g stroke-linejoin="miter" stroke-opacity="0.5" fill-opacity="0.0" stroke="rgb(26,102,204)" stroke-width="1.1999999999999997" fill="rgb(0,0,0)" stroke-linecap="butt" stroke-miterlimit="10.0"><path d="M 40.6593,98.9011 h 4.3956 "/></g><g stroke-linejoin="miter" stroke-opacity="1.0" fill-opacity="0.7" font-size="8.791208791208787px" stroke="rgb(0,0,0)" stroke-width="1.1999999999999997" fill="rgb(51,51,51)" stroke-linecap="butt" stroke-miterlimit="10.0"><text dominant-baseline="middle" transform="matrix(1.0000,0.0000,0.0000,1.0000,36.2637,120.8791)" stroke="none" text-anchor="end">60</text></g><g stroke-linejoin="miter" stroke-opacity="0.5" fill-opacity="0.0" stroke="rgb(26,102,204)" stroke-width="1.1999999999999997" fill="rgb(0,0,0)" stroke-linecap="butt" stroke-miterlimit="10.0"><path d="M 40.6593,120.8791 h 4.3956 "/></g><g stroke-linejoin="miter" stroke-opacity="1.0" fill-opacity="0.7" font-size="8.791208791208787px" stroke="rgb(0,0,0)" stroke-width="1.1999999999999997" fill="rgb(51,51,51)" stroke-linecap="butt" stroke-miterlimit="10.0"><text dominant-baseline="middle" transform="matrix(1.0000,0.0000,0.0000,1.0000,36.2637,142.8571)" stroke="none" text-anchor="end">50</text></g><g stroke-linejoin="miter" stroke-opacity="0.5" fill-opacity="0.0" stroke="rgb(26,102,204)" stroke-width="1.1999999999999997" fill="rgb(0,0,0)" stroke-linecap="butt" stroke-miterlimit="10.0"><path d="M 40.6593,142.8571 h 4.3956 "/></g><g stroke-linejoin="miter" stroke-opacity="1.0" fill-opacity="0.7" font-size="8.791208791208787px" stroke="rgb(0,0,0)" stroke-width="1.1999999999999997" fill="rgb(51,51,51)" stroke-linecap="butt" stroke-miterlimit="10.0"><text dominant-baseline="middle" transform="matrix(1.0000,0.0000,0.0000,1.0000,36.2637,164.8352)" stroke="none" text-anchor="end">40</text></g><g stroke-linejoin="miter" stroke-opacity="0.5" fill-opacity="0.0" stroke="rgb(26,102,204)" stroke-width="1.1999999999999997" fill="rgb(0,0,0)" stroke-linecap="butt" stroke-miterlimit="10.0"><path d="M 40.6593,164.8352 h 4.3956 "/></g><g stroke-linejoin="miter" stroke-opacity="1.0" fill-opacity="0.7" font-size="8.791208791208787px" stroke="rgb(0,0,0)" stroke-width="1.1999999999999997" fill="rgb(51,51,51)" stroke-linecap="butt" stroke-miterlimit="10.0"><text dominant-baseline="middle" transform="matrix(1.0000,0.0000,0.0000,1.0000,36.2637,186.8132)" stroke="none" text-anchor="end">30</text></g><g stroke-linejoin="miter" stroke-opacity="0.5" fill-opacity="0.0" stroke="rgb(26,102,204)" stroke-width="1.1999999999999997" fill="rgb(0,0,0)" stroke-linecap="butt" stroke-miterlimit="10.0"><path d="M 40.6593,186.8132 h 4.3956 "/></g><g stroke-linejoin="miter" stroke-opacity="1.0" fill-opacity="0.7" font-size="8.791208791208787px" stroke="rgb(0,0,0)" stroke-width="1.1999999999999997" fill="rgb(51,51,51)" stroke-linecap="butt" stroke-miterlimit="10.0"><text dominant-baseline="middle" transform="matrix(1.0000,0.0000,0.0000,1.0000,36.2637,208.7912)" stroke="none" text-anchor="end">20</text></g><g stroke-linejoin="miter" stroke-opacity="0.5" fill-opacity="0.0" stroke="rgb(26,102,204)" stroke-width="1.1999999999999997" fill="rgb(0,0,0)" stroke-linecap="butt" stroke-miterlimit="10.0"><path d="M 40.6593,208.7912 h 4.3956 "/></g><g stroke-linejoin="miter" stroke-opacity="1.0" fill-opacity="0.7" font-size="8.791208791208787px" stroke="rgb(0,0,0)" stroke-width="1.1999999999999997" fill="rgb(51,51,51)" stroke-linecap="butt" stroke-miterlimit="10.0"><text dominant-baseline="middle" transform="matrix(1.0000,0.0000,0.0000,1.0000,36.2637,230.7692)" stroke="none" text-anchor="end">10</text></g><g stroke-linejoin="miter" stroke-opacity="0.5" fill-opacity="0.0" stroke="rgb(26,102,204)" stroke-width="1.1999999999999997" fill="rgb(0,0,0)" stroke-linecap="butt" stroke-miterlimit="10.0"><path d="M 40.6593,230.7692 h 4.3956 "/></g><g stroke-linejoin="miter" stroke-opacity="1.0" fill-opacity="0.7" font-size="8.791208791208787px" stroke="rgb(0,0,0)" stroke-width="1.1999999999999997" fill="rgb(51,51,51)" stroke-linecap="butt" stroke-miterlimit="10.0"><text dominant-baseline="middle" transform="matrix(1.0000,0.0000,0.0000,1.0000,36.2637,252.7473)" stroke="none" text-anchor="end">0.0</text></g><g stroke-linejoin="miter" stroke-opacity="0.5" fill-opacity="0.0" stroke="rgb(26,102,204)" stroke-width="1.1999999999999997" fill="rgb(0,0,0)" stroke-linecap="butt" stroke-miterlimit="10.0"><path d="M 40.6593,252.7473 h 4.3956 "/></g><g stroke-linejoin="miter" stroke-opacity="0.0" fill-opacity="0.5" stroke="rgb(0,0,0)" stroke-width="0.0" fill="rgb(102,26,102)" stroke-linecap="butt" stroke-miterlimit="10.0"><path d="M 267.0330,257.1429 l -0.0000,-4.3956 h -219.7802 l -0.0000,4.3956 Z"/></g><g stroke-linejoin="miter" stroke-opacity="1.0" fill-opacity="0.7" font-size="8.791208791208787px" stroke="rgb(0,0,0)" stroke-width="1.1999999999999997" fill="rgb(51,51,51)" stroke-linecap="butt" stroke-miterlimit="10.0"><text dominant-baseline="text-before-edge" transform="matrix(1.0000,0.0000,0.0000,1.0000,265.9395,263.7363)" stroke="none" text-anchor="middle">2.0e2</text></g><g stroke-linejoin="miter" stroke-opacity="0.5" fill-opacity="0.0" stroke="rgb(26,102,204)" stroke-width="1.1999999999999997" fill="rgb(0,0,0)" stroke-linecap="butt" stroke-miterlimit="10.0"><path d="M 265.9395,254.9451 v 4.3956 "/></g><g stroke-linejoin="miter" stroke-opacity="1.0" fill-opacity="0.7" font-size="8.791208791208787px" stroke="rgb(0,0,0)" stroke-width="1.1999999999999997" fill="rgb(51,51,51)" stroke-linecap="butt" stroke-miterlimit="10.0"><text dominant-baseline="text-before-edge" transform="matrix(1.0000,0.0000,0.0000,1.0000,244.0709,263.7363)" stroke="none" text-anchor="middle">1.8e2</text></g><g stroke-linejoin="miter" stroke-opacity="0.5" fill-opacity="0.0" stroke="rgb(26,102,204)" stroke-width="1.1999999999999997" fill="rgb(0,0,0)" stroke-linecap="butt" stroke-miterlimit="10.0"><path d="M 244.0709,254.9451 v 4.3956 "/></g><g stroke-linejoin="miter" stroke-opacity="1.0" fill-opacity="0.7" font-size="8.791208791208787px" stroke="rgb(0,0,0)" stroke-width="1.1999999999999997" fill="rgb(51,51,51)" stroke-linecap="butt" stroke-miterlimit="10.0"><text dominant-baseline="text-before-edge" transform="matrix(1.0000,0.0000,0.0000,1.0000,222.2022,263.7363)" stroke="none" text-anchor="middle">1.6e2</text></g><g stroke-linejoin="miter" stroke-opacity="0.5" fill-opacity="0.0" stroke="rgb(26,102,204)" stroke-width="1.1999999999999997" fill="rgb(0,0,0)" stroke-linecap="butt" stroke-miterlimit="10.0"><path d="M 222.2022,254.9451 v 4.3956 "/></g><g stroke-linejoin="miter" stroke-opacity="1.0" fill-opacity="0.7" font-size="8.791208791208787px" stroke="rgb(0,0,0)" stroke-width="1.1999999999999997" fill="rgb(51,51,51)" stroke-linecap="butt" stroke-miterlimit="10.0"><text dominant-baseline="text-before-edge" transform="matrix(1.0000,0.0000,0.0000,1.0000,200.3335,263.7363)" stroke="none" text-anchor="middle">1.4e2</text></g><g stroke-linejoin="miter" stroke-opacity="0.5" fill-opacity="0.0" stroke="rgb(26,102,204)" stroke-width="1.1999999999999997" fill="rgb(0,0,0)" stroke-linecap="butt" stroke-miterlimit="10.0"><path d="M 200.3335,254.9451 v 4.3956 "/></g><g stroke-linejoin="miter" stroke-opacity="1.0" fill-opacity="0.7" font-size="8.791208791208787px" stroke="rgb(0,0,0)" stroke-width="1.1999999999999997" fill="rgb(51,51,51)" stroke-linecap="butt" stroke-miterlimit="10.0"><text dominant-baseline="text-before-edge" transform="matrix(1.0000,0.0000,0.0000,1.0000,178.4648,263.7363)" stroke="none" text-anchor="middle">1.2e2</text></g><g stroke-linejoin="miter" stroke-opacity="0.5" fill-opacity="0.0" stroke="rgb(26,102,204)" stroke-width="1.1999999999999997" fill="rgb(0,0,0)" stroke-linecap="butt" stroke-miterlimit="10.0"><path d="M 178.4648,254.9451 v 4.3956 "/></g><g stroke-linejoin="miter" stroke-opacity="1.0" fill-opacity="0.7" font-size="8.791208791208787px" stroke="rgb(0,0,0)" stroke-width="1.1999999999999997" fill="rgb(51,51,51)" stroke-linecap="butt" stroke-miterlimit="10.0"><text dominant-baseline="text-before-edge" transform="matrix(1.0000,0.0000,0.0000,1.0000,156.5961,263.7363)" stroke="none" text-anchor="middle">1.0e2</text></g><g stroke-linejoin="miter" stroke-opacity="0.5" fill-opacity="0.0" stroke="rgb(26,102,204)" stroke-width="1.1999999999999997" fill="rgb(0,0,0)" stroke-linecap="butt" stroke-miterlimit="10.0"><path d="M 156.5961,254.9451 v 4.3956 "/></g><g stroke-linejoin="miter" stroke-opacity="1.0" fill-opacity="0.7" font-size="8.791208791208787px" stroke="rgb(0,0,0)" stroke-width="1.1999999999999997" fill="rgb(51,51,51)" stroke-linecap="butt" stroke-miterlimit="10.0"><text dominant-baseline="text-before-edge" transform="matrix(1.0000,0.0000,0.0000,1.0000,134.7275,263.7363)" stroke="none" text-anchor="middle">80</text></g><g stroke-linejoin="miter" stroke-opacity="0.5" fill-opacity="0.0" stroke="rgb(26,102,204)" stroke-width="1.1999999999999997" fill="rgb(0,0,0)" stroke-linecap="butt" stroke-miterlimit="10.0"><path d="M 134.7275,254.9451 v 4.3956 "/></g><g stroke-linejoin="miter" stroke-opacity="1.0" fill-opacity="0.7" font-size="8.791208791208787px" stroke="rgb(0,0,0)" stroke-width="1.1999999999999997" fill="rgb(51,51,51)" stroke-linecap="butt" stroke-miterlimit="10.0"><text dominant-baseline="text-before-edge" transform="matrix(1.0000,0.0000,0.0000,1.0000,112.8588,263.7363)" stroke="none" text-anchor="middle">60</text></g><g stroke-linejoin="miter" stroke-opacity="0.5" fill-opacity="0.0" stroke="rgb(26,102,204)" stroke-width="1.1999999999999997" fill="rgb(0,0,0)" stroke-linecap="butt" stroke-miterlimit="10.0"><path d="M 112.8588,254.9451 v 4.3956 "/></g><g stroke-linejoin="miter" stroke-opacity="1.0" fill-opacity="0.7" font-size="8.791208791208787px" stroke="rgb(0,0,0)" stroke-width="1.1999999999999997" fill="rgb(51,51,51)" stroke-linecap="butt" stroke-miterlimit="10.0"><text dominant-baseline="text-before-edge" transform="matrix(1.0000,0.0000,0.0000,1.0000,90.9901,263.7363)" stroke="none" text-anchor="middle">40</text></g><g stroke-linejoin="miter" stroke-opacity="0.5" fill-opacity="0.0" stroke="rgb(26,102,204)" stroke-width="1.1999999999999997" fill="rgb(0,0,0)" stroke-linecap="butt" stroke-miterlimit="10.0"><path d="M 90.9901,254.9451 v 4.3956 "/></g><g stroke-linejoin="miter" stroke-opacity="1.0" fill-opacity="0.7" font-size="8.791208791208787px" stroke="rgb(0,0,0)" stroke-width="1.1999999999999997" fill="rgb(51,51,51)" stroke-linecap="butt" stroke-miterlimit="10.0"><text dominant-baseline="text-before-edge" transform="matrix(1.0000,0.0000,0.0000,1.0000,69.1214,263.7363)" stroke="none" text-anchor="middle">20</text></g><g stroke-linejoin="miter" stroke-opacity="0.5" fill-opacity="0.0" stroke="rgb(26,102,204)" stroke-width="1.1999999999999997" fill="rgb(0,0,0)" stroke-linecap="butt" stroke-miterlimit="10.0"><path d="M 69.1214,254.9451 v 4.3956 "/></g><g stroke-linejoin="miter" stroke-opacity="1.0" fill-opacity="0.7" font-size="8.791208791208787px" stroke="rgb(0,0,0)" stroke-width="1.1999999999999997" fill="rgb(51,51,51)" stroke-linecap="butt" stroke-miterlimit="10.0"><text dominant-baseline="text-before-edge" transform="matrix(1.0000,0.0000,0.0000,1.0000,47.2527,263.7363)" stroke="none" text-anchor="middle">0.0</text></g><g stroke-linejoin="miter" stroke-opacity="0.5" fill-opacity="0.0" stroke="rgb(26,102,204)" stroke-width="1.1999999999999997" fill="rgb(0,0,0)" stroke-linecap="butt" stroke-miterlimit="10.0"><path d="M 47.2527,254.9451 v 4.3956 "/></g><g stroke-linejoin="miter" stroke-opacity="1.0" fill-opacity="0.0" stroke="rgb(84,84,84)" stroke-width="0.5999999999999999" fill="rgb(0,0,0)" stroke-linecap="butt" stroke-miterlimit="10.0"><path d="M 47.2527,252.7473 l 1.0934,-2.1978 l 1.0934,-2.1978 l 1.0934,-2.1978 l 1.0934,-2.1978 l 1.0934,-2.1978 l 1.0934,-2.1978 l 1.0934,-2.1978 l 1.0934,-2.1978 l 1.0934,-2.1978 l 1.0934,-2.1978 l 1.0934,-2.1978 l 1.0934,-2.1978 l 1.0934,-2.1978 l 1.0934,-2.1978 l 1.0934,-2.1978 l 1.0934,-2.1978 l 1.0934,-2.1978 l 1.0934,-2.1978 l 1.0934,-2.1978 l 1.0934,-2.1978 l 1.0934,-2.1978 l 1.0934,-2.1978 l 1.0934,-2.1978 l 1.0934,-2.1978 l 1.0934,-2.1978 l 1.0934,-2.1978 l 1.0934,-2.1978 l 1.0934,-2.1978 l 1.0934,-2.1978 l 1.0934,-2.1978 l 1.0934,-2.1978 l 1.0934,-2.1978 l 1.0934,-2.1978 l 1.0934,-2.1978 l 1.0934,-2.1978 l 1.0934,-2.1978 l 1.0934,-2.1978 l 1.0934,-2.1978 l 1.0934,-2.1978 l 1.0934,-2.1978 l 1.0934,-2.1978 l 1.0934,-2.1978 l 1.0934,-2.1978 l 1.0934,-2.1978 l 1.0934,-2.1978 l 1.0934,-2.1978 l 1.0934,-2.1978 l 1.0934,-2.1978 l 1.0934,-2.1978 l 1.0934,-2.1978 l 1.0934,-2.1978 l 1.0934,-2.1978 l 1.0934,-2.1978 l 1.0934,-2.1978 l 1.0934,-2.1978 l 1.0934,-2.1978 l 1.0934,-2.1978 l 1.0934,-2.1978 l 1.0934,-2.1978 l 1.0934,-2.1978 l 1.0934,-2.1978 l 1.0934,-2.1978 l 1.0934,-2.1978 l 1.0934,-2.1978 l 1.0934,-2.1978 l 1.0934,-2.1978 l 1.0934,-2.1978 l 1.0934,-2.1978 l 1.0934,-2.1978 l 1.0934,-2.1978 l 1.0934,-2.1978 l 1.0934,-2.1978 l 1.0934,-2.1978 l 1.0934,-2.1978 l 1.0934,-2.1978 l 1.0934,-2.1978 l 1.0934,-2.1978 l 1.0934,-2.1978 l 1.0934,-2.1978 l 1.0934,-2.1978 l 1.0934,-2.1978 l 1.0934,-2.1978 l 1.0934,-2.1978 l 1.0934,-2.1978 l 1.0934,-2.1978 l 1.0934,-2.1978 l 1.0934,-2.1978 l 1.0934,-2.1978 l 1.0934,-2.1978 l 1.0934,-2.1978 l 1.0934,-2.1978 l 1.0934,-2.1978 l 1.0934,-2.1978 l 1.0934,-2.1978 l 1.0934,-2.1978 l 1.0934,-2.1978 l 1.0934,-2.1978 l 1.0934,-2.1978 l 1.0934,-2.1978 l 1.0934,-2.1978 h 1.0934 h 1.0934 h 1.0934 h 1.0934 h 1.0934 h 1.0934 h 1.0934 h 1.0934 h 1.0934 h 1.0934 h 1.0934 h 1.0934 h 1.0934 h 1.0934 h 1.0934 h 1.0934 h 1.0934 h 1.0934 h 1.0934 h 1.0934 h 1.0934 h 1.0934 h 1.0934 h 1.0934 h 1.0934 h 1.0934 h 1.0934 h 1.0934 h 1.0934 h 1.0934 h 1.0934 h 1.0934 h 1.0934 h 1.0934 h 1.0934 h 1.0934 h 1.0934 h 1.0934 h 1.0934 h 1.0934 h 1.0934 h 1.0934 h 1.0934 h 1.0934 h 1.0934 h 1.0934 h 1.0934 h 1.0934 h 1.0934 h 1.0934 h 1.0934 h 1.0934 h 1.0934 h 1.0934 h 1.0934 h 1.0934 h 1.0934 h 1.0934 h 1.0934 h 1.0934 h 1.0934 h 1.0934 h 1.0934 h 1.0934 h 1.0934 h 1.0934 h 1.0934 h 1.0934 h 1.0934 h 1.0934 h 1.0934 h 1.0934 h 1.0934 h 1.0934 h 1.0934 h 1.0934 h 1.0934 h 1.0934 h 1.0934 h 1.0934 h 1.0934 h 1.0934 h 1.0934 h 1.0934 h 1.0934 h 1.0934 h 1.0934 h 1.0934 h 1.0934 h 1.0934 h 1.0934 h 1.0934 h 1.0934 h 1.0934 h 1.0934 h 1.0934 h 1.0934 h 1.0934 h 1.0934 h 1.0934 h 1.0934 "/></g><g stroke-linejoin="miter" stroke-opacity="1.0" fill-opacity="0.0" stroke="rgb(31,84,212)" stroke-width="1.4999999999999998" fill="rgb(0,0,0)" stroke-linecap="butt" stroke-miterlimit="10.0"><path d="M 47.2527,252.7473 l 1.0934,-1.0989 l 1.0934,-0.6956 l 1.0934,-0.6627 l 1.0934,-0.6508 l 1.0934,-0.6452 l 1.0934,-0.6419 l 1.0934,-0.6399 l 1.0934,-0.6386 l 1.0934,-0.6376 l 1.0934,-0.6368 l 1.0934,-0.6362 l 1.0934,-0.6357 l 1.0934,-0.6353 l 1.0934,-0.6350 l 1.0934,-0.6346 l 1.0934,-0.6343 l 1.0934,-0.6340 l 1.0934,-0.6337 l 1.0934,-0.6335 l 1.0934,-0.6332 l 1.0934,-0.6329 l 1.0934,-0.6326 l 1.0934,-0.6324 l 1.0934,-0.6321 l 1.0934,-0.6318 l 1.0934,-0.6315 l 1.0934,-0.6312 l 1.0934,-0.6310 l 1.0934,-0.6306 l 1.0934,-0.6303 l 1.0934,-0.6300 l 1.0934,-0.6297 l 1.0934,-0.6294 l 1.0934,-0.6290 l 1.0934,-0.6287 l 1.0934,-0.6283 l 1.0934,-0.6280 l 1.0934,-0.6276 l 1.0934,-0.6272 l 1.0934,-0.6268 l 1.0934,-0.6264 l 1.0934,-0.6260 l 1.0934,-0.6256 l 1.0934,-0.6252 l 1.0934,-0.6247 l 1.0934,-0.6243 l 1.0934,-0.6239 l 1.0934,-0.6234 l 1.0934,-0.6229 l 1.0934,-0.6225 l 1.0934,-0.6220 l 1.0934,-0.6215 l 1.0934,-0.6210 l 1.0934,-0.6205 l 1.0934,-0.6200 l 1.0934,-0.6194 l 1.0934,-0.6189 l 1.0934,-0.6183 l 1.0934,-0.6178 l 1.0934,-0.6172 l 1.0934,-0.6167 l 1.0934,-0.6161 l 1.0934,-0.6155 l 1.0934,-0.6149 l 1.0934,-0.6143 l 1.0934,-0.6137 l 1.0934,-0.6131 l 1.0934,-0.6124 l 1.0934,-0.6118 l 1.0934,-0.6112 l 1.0934,-0.6105 l 1.0934,-0.6098 l 1.0934,-0.6092 l 1.0934,-0.6085 l 1.0934,-0.6078 l 1.0934,-0.6071 l 1.0934,-0.6064 l 1.0934,-0.6057 l 1.0934,-0.6050 l 1.0934,-0.6043 l 1.0934,-0.6035 l 1.0934,-0.6028 l 1.0934,-0.6020 l 1.0934,-0.6013 l 1.0934,-0.6005 l 1.0934,-0.5997 l 1.0934,-0.5989 l 1.0934,-0.5982 l 1.0934,-0.5974 l 1.0934,-0.5966 l 1.0934,-0.5957 l 1.0934,-0.5949 l 1.0934,-0.5941 l 1.0934,-0.5933 l 1.0934,-0.5924 l 1.0934,-0.5916 l 1.0934,-0.5907 l 1.0934,-0.5898 l 1.0934,-0.5890 l 1.0934,-0.5881 l 1.0934,-0.5377 l 1.0934,-0.4909 l 1.0934,-0.4475 l 1.0934,-0.4071 l 1.0934,-0.3694 l 1.0934,-0.3343 l 1.0934,-0.3014 l 1.0934,-0.2706 l 1.0934,-0.2417 l 1.0934,-0.2147 l 1.0934,-0.1892 l 1.0934,-0.1653 l 1.0934,-0.1428 l 1.0934,-0.1217 l 1.0934,-0.1017 l 1.0934,-0.0829 l 1.0934,-0.0651 l 1.0934,-0.0483 l 1.0934,-0.0325 l 1.0934,-0.0175 l 1.0934,-0.0033 l 1.0934,0.0101 l 1.0934,0.0228 l 1.0934,0.0348 l 1.0934,0.0462 l 1.0934,0.0570 l 1.0934,0.0672 l 1.0934,0.0769 l 1.0934,0.0860 l 1.0934,0.0947 l 1.0934,0.1030 l 1.0934,0.1108 l 1.0934,0.1183 l 1.0934,0.1253 l 1.0934,0.1320 l 1.0934,0.1384 l 1.0934,0.1444 l 1.0934,0.1501 l 1.0934,0.1555 l 1.0934,0.1606 l 1.0934,0.1655 l 1.0934,0.1701 l 1.0934,0.1745 l 1.0934,0.1787 l 1.0934,0.1826 l 1.0934,0.1863 l 1.0934,0.1898 l 1.0934,0.1932 l 1.0934,0.1963 l 1.0934,0.1993 l 1.0934,0.2021 l 1.0934,0.2048 l 1.0934,0.2073 l 1.0934,0.2097 l 1.0934,0.2119 l 1.0934,0.2140 l 1.0934,0.2160 l 1.0934,0.2179 l 1.0934,0.2196 l 1.0934,0.2212 l 1.0934,0.2228 l 1.0934,0.2242 l 1.0934,0.2255 l 1.0934,0.2268 l 1.0934,0.2279 l 1.0934,0.2290 l 1.0934,0.2300 l 1.0934,0.2309 l 1.0934,0.2317 l 1.0934,0.2325 l 1.0934,0.2332 l 1.0934,0.2338 l 1.0934,0.2344 l 1.0934,0.2349 l 1.0934,0.2354 l 1.0934,0.2358 l 1.0934,0.2361 l 1.0934,0.2364 l 1.0934,0.2366 l 1.0934,0.2368 l 1.0934,0.2370 l 1.0934,0.2371 l 1.0934,0.2372 l 1.0934,0.2372 l 1.0934,0.2372 l 1.0934,0.2371 l 1.0934,0.2371 l 1.0934,0.2370 l 1.0934,0.2368 l 1.0934,0.2366 l 1.0934,0.2364 l 1.0934,0.2362 l 1.0934,0.2359 l 1.0934,0.2356 l 1.0934,0.2353 l 1.0934,0.2350 l 1.0934,0.2346 l 1.0934,0.2342 l 1.0934,0.2338 l 1.0934,0.2334 l 1.0934,0.2329 "/></g><g stroke-linejoin="miter" stroke-opacity="1.0" fill-opacity="0.0" stroke="rgb(224,84,31)" stroke-width="1.4999999999999998" fill="rgb(0,0,0)" stroke-linecap="butt" stroke-miterlimit="10.0"><path d="M 47.2527,252.7473 l 1.0934,-1.0974 l 1.0934,-0.6922 l 1.0934,-0.6561 l 1.0934,-0.6402 l 1.0934,-0.6294 l 1.0934,-0.6202 l 1.0934,-0.6112 l 1.0934,-0.6020 l 1.0934,-0.5923 l 1.0934,-0.5821 l 1.0934,-0.5713 l 1.0934,-0.5599 l 1.0934,-0.5480 l 1.0934,-0.5356 l 1.0934,-0.5227 l 1.0934,-0.5094 l 1.0934,-0.4958 l 1.0934,-0.4818 l 1.0934,-0.4676 l 1.0934,-0.4531 l 1.0934,-0.4385 l 1.0934,-0.4239 l 1.0934,-0.4092 l 1.0934,-0.3945 l 1.0934,-0.3798 l 1.0934,-0.3653 l 1.0934,-0.3508 l 1.0934,-0.3366 l 1.0934,-0.3225 l 1.0934,-0.3087 l 1.0934,-0.2952 l 1.0934,-0.2819 l 1.0934,-0.2690 l 1.0934,-0.2564 l 1.0934,-0.2441 l 1.0934,-0.2322 l 1.0934,-0.2206 l 1.0934,-0.2095 l 1.0934,-0.1987 l 1.0934,-0.1883 l 1.0934,-0.1782 l 1.0934,-0.1686 l 1.0934,-0.1594 l 1.0934,-0.1505 l 1.0934,-0.1420 l 1.0934,-0.1339 l 1.0934,-0.1262 l 1.0934,-0.1188 l 1.0934,-0.1118 l 1.0934,-0.1051 l 1.0934,-0.0987 l 1.0934,-0.0927 l 1.0934,-0.0869 l 1.0934,-0.0815 l 1.0934,-0.0764 l 1.0934,-0.0715 l 1.0934,-0.0669 l 1.0934,-0.0626 l 1.0934,-0.0585 l 1.0934,-0.0546 l 1.0934,-0.0510 l 1.0934,-0.0476 l 1.0934,-0.0444 l 1.0934,-0.0414 l 1.0934,-0.0386 l 1.0934,-0.0359 l 1.0934,-0.0334 l 1.0934,-0.0311 l 1.0934,-0.0289 l 1.0934,-0.0269 l 1.0934,-0.0250 l 1.0934,-0.0232 l 1.0934,-0.0215 l 1.0934,-0.0200 l 1.0934,-0.0185 l 1.0934,-0.0172 l 1.0934,-0.0159 l 1.0934,-0.0147 l 1.0934,-0.0137 l 1.0934,-0.0126 l 1.0934,-0.0117 l 1.0934,-0.0108 l 1.0934,-0.0100 l 1.0934,-0.0092 l 1.0934,-0.0085 l 1.0934,-0.0079 l 1.0934,-0.0073 l 1.0934,-0.0067 l 1.0934,-0.0062 l 1.0934,-0.0057 l 1.0934,-0.0053 l 1.0934,-0.0049 l 1.0934,-0.0045 l 1.0934,-0.0041 l 1.0934,-0.0038 l 1.0934,-0.0035 l 1.0934,-0.0032 l 1.0934,-0.0030 l 1.0934,-0.0027 l 1.0934,-0.0025 l 1.0934,0.1969 l 1.0934,0.3430 l 1.0934,0.4499 l 1.0934,0.5271 l 1.0934,0.5816 l 1.0934,0.6187 l 1.0934,0.6421 l 1.0934,0.6549 l 1.0934,0.6593 l 1.0934,0.6572 l 1.0934,0.6501 l 1.0934,0.6391 l 1.0934,0.6250 l 1.0934,0.6088 l 1.0934,0.5909 l 1.0934,0.5718 l 1.0934,0.5520 l 1.0934,0.5318 l 1.0934,0.5113 l 1.0934,0.4909 l 1.0934,0.4706 l 1.0934,0.4506 l 1.0934,0.4311 l 1.0934,0.4120 l 1.0934,0.3934 l 1.0934,0.3754 l 1.0934,0.3580 l 1.0934,0.3412 l 1.0934,0.3251 l 1.0934,0.3095 l 1.0934,0.2946 l 1.0934,0.2804 l 1.0934,0.2667 l 1.0934,0.2536 l 1.0934,0.2411 l 1.0934,0.2292 l 1.0934,0.2178 l 1.0934,0.2069 l 1.0934,0.1966 l 1.0934,0.1867 l 1.0934,0.1774 l 1.0934,0.1684 l 1.0934,0.1599 l 1.0934,0.1518 l 1.0934,0.1442 l 1.0934,0.1369 l 1.0934,0.1299 l 1.0934,0.1233 l 1.0934,0.1170 l 1.0934,0.1111 l 1.0934,0.1054 l 1.0934,0.1000 l 1.0934,0.0949 l 1.0934,0.0901 l 1.0934,0.0855 l 1.0934,0.0811 l 1.0934,0.0770 l 1.0934,0.0730 l 1.0934,0.0693 l 1.0934,0.0658 l 1.0934,0.0624 l 1.0934,0.0592 l 1.0934,0.0562 l 1.0934,0.0533 l 1.0934,0.0506 l 1.0934,0.0480 l 1.0934,0.0455 l 1.0934,0.0432 l 1.0934,0.0410 l 1.0934,0.0389 l 1.0934,0.0369 l 1.0934,0.0350 l 1.0934,0.0332 l 1.0934,0.0315 l 1.0934,0.0299 l 1.0934,0.0283 l 1.0934,0.0269 l 1.0934,0.0255 l 1.0934,0.0242 l 1.0934,0.0230 l 1.0934,0.0218 l 1.0934,0.0207 l 1.0934,0.0196 l 1.0934,0.0186 l 1.0934,0.0176 l 1.0934,0.0167 l 1.0934,0.0159 l 1.0934,0.0151 l 1.0934,0.0143 l 1.0934,0.0136 l 1.0934,0.0129 l 1.0934,0.0122 l 1.0934,0.0116 l 1.0934,0.0110 l 1.0934,0.0104 l 1.0934,0.0099 l 1.0934,0.0094 l 1.0934,0.0089 l 1.0934,0.0084 l 1.0934,0.0080 l 1.0934,0.0076 "/></g></svg>